<svg id="SvgjsSvg1032" xmlns="http://www.w3.org/2000/svg" version="1.1" xmlns:xlink="http://www.w3.org/1999/xlink" xmlns:svgjs="http://svgjs.com/svgjs" width="188.60750000000007" height="42"><defs id="SvgjsDefs1033"><filter id="SvgjsFilter1035" width="200%" height="200%" x="-50%" y="-50%"><feGaussianBlur id="SvgjsFeGaussianBlur1036" stdDeviation="1 " result="SvgjsFeGaussianBlur1036Out" in="SourceGraphic"></feGaussianBlur></filter><filter id="SvgjsFilter1041" width="200%" height="200%" x="-50%" y="-50%"><feGaussianBlur id="SvgjsFeGaussianBlur1042" stdDeviation="0 " result="SvgjsFeGaussianBlur1042Out" in="SourceGraphic"></feGaussianBlur></filter><mask id="SvgjsMask1043"><path id="SvgjsPath1039" d="M1333.78 2878C1335.34 2878 1337.26 2879.1 1338.04 2880.45L1346.21 2894.5499999999997C1347 2895.8999999999996 1347 2898.1 1346.21 2899.45L1338.04 2913.5499999999997C1337.26 2914.8999999999996 1335.34 2915.9999999999995 1333.78 2915.9999999999995L1175.22 2915.9999999999995C1173.65 2915.9999999999995 1171.74 2914.8999999999996 1170.95 2913.5499999999997L1162.78 2899.45C1162 2898.1 1162 2895.8999999999996 1162.78 2894.5499999999997L1170.95 2880.45C1171.74 2879.1 1173.65 2878 1175.22 2878Z " fill="#ffffff"></path></mask></defs><path id="SvgjsPath1034" d="M1333.78 2879C1335.34 2879 1337.26 2880.1 1338.04 2881.45L1346.21 2895.5499999999997C1347 2896.8999999999996 1347 2899.1 1346.21 2900.45L1338.04 2914.5499999999997C1337.26 2915.8999999999996 1335.34 2916.9999999999995 1333.78 2916.9999999999995L1175.22 2916.9999999999995C1173.65 2916.9999999999995 1171.74 2915.8999999999996 1170.95 2914.5499999999997L1162.78 2900.45C1162 2899.1 1162 2896.8999999999996 1162.78 2895.5499999999997L1170.95 2881.45C1171.74 2880.1 1173.65 2879 1175.22 2879Z " fill="#2e411b" fill-opacity="1" filter="url(#SvgjsFilter1035)" transform="matrix(1,0,0,1,-1160.19625,-2877)"></path><path id="SvgjsPath1037" d="M1333.78 2878C1335.34 2878 1337.26 2879.1 1338.04 2880.45L1346.21 2894.5499999999997C1347 2895.8999999999996 1347 2898.1 1346.21 2899.45L1338.04 2913.5499999999997C1337.26 2914.8999999999996 1335.34 2915.9999999999995 1333.78 2915.9999999999995L1175.22 2915.9999999999995C1173.65 2915.9999999999995 1171.74 2914.8999999999996 1170.95 2913.5499999999997L1162.78 2899.45C1162 2898.1 1162 2895.8999999999996 1162.78 2894.5499999999997L1170.95 2880.45C1171.74 2879.1 1173.65 2878 1175.22 2878Z " fill="#396d36" transform="matrix(1,0,0,1,-1160.19625,-2877)"></path><path id="SvgjsPath1038" d="M1333.78 2878C1335.34 2878 1337.26 2879.1 1338.04 2880.45L1346.21 2894.5499999999997C1347 2895.8999999999996 1347 2898.1 1346.21 2899.45L1338.04 2913.5499999999997C1337.26 2914.8999999999996 1335.34 2915.9999999999995 1333.78 2915.9999999999995L1175.22 2915.9999999999995C1173.65 2915.9999999999995 1171.74 2914.8999999999996 1170.95 2913.5499999999997L1162.78 2899.45C1162 2898.1 1162 2895.8999999999996 1162.78 2894.5499999999997L1170.95 2880.45C1171.74 2879.1 1173.65 2878 1175.22 2878Z " fill="#396d36" transform="matrix(1,0,0,1,-1160.19625,-2877)"></path><path id="SvgjsPath1040" d="M1162 2916L1162 2878L1175.22 2878C1173.65 2878 1171.74 2879.1 1170.95 2880.45L1162.78 2894.5499999999997C1162 2895.8999999999996 1162 2898.1 1162.78 2899.45L1170.95 2913.5499999999997C1171.74 2914.8999999999996 1173.65 2915.9999999999995 1175.22 2915.9999999999995ZM1347 2878L1347 2916L1333.78 2916C1335.34 2916 1337.26 2914.9 1338.04 2913.55L1346.21 2899.4500000000003C1347 2898.1000000000004 1347 2895.9 1346.21 2894.55L1338.04 2880.4500000000003C1337.26 2879.1000000000004 1335.34 2878.0000000000005 1333.78 2878.0000000000005Z " fill="#8cb63c" fill-opacity="0.15" stroke-opacity="0.15" stroke-width="0" stroke="#8cb63c" filter="url(#SvgjsFilter1041)" mask="url(&quot;#SvgjsMask1043&quot;)" transform="matrix(1,0,0,1,-1160.19625,-2877)"></path><path id="SvgjsPath1045" d="M1162 2916L1162 2878L1175.22 2878C1173.65 2878 1171.74 2879.1 1170.95 2880.45L1162.78 2894.5499999999997C1162 2895.8999999999996 1162 2898.1 1162.78 2899.45L1170.95 2913.5499999999997C1171.74 2914.8999999999996 1173.65 2915.9999999999995 1175.22 2915.9999999999995ZM1347 2878L1347 2916L1333.78 2916C1335.34 2916 1337.26 2914.9 1338.04 2913.55L1346.21 2899.4500000000003C1347 2898.1000000000004 1347 2895.9 1346.21 2894.55L1338.04 2880.4500000000003C1337.26 2879.1000000000004 1335.34 2878.0000000000005 1333.78 2878.0000000000005Z " fill="#8cb63c" fill-opacity="0.15" stroke-opacity="0.15" stroke-width="0" stroke="#8cb63c" filter="url(#SvgjsFilter1041)" mask="url(&quot;#SvgjsMask1043&quot;)" transform="matrix(1,0,0,1,-1160.19625,-2877)"></path><path id="SvgjsPath1046" d="M1180 2894C1181.66 2894 1183 2895.34 1183 2897C1183 2898.66 1181.66 2900 1180 2900C1178.34 2900 1177 2898.66 1177 2897C1177 2895.34 1178.34 2894 1180 2894Z " fill="#8ab43b" transform="matrix(1,0,0,1,-1160.19625,-2877)"></path><path id="SvgjsPath1047" d="M1329 2894C1330.66 2894 1332 2895.34 1332 2897C1332 2898.66 1330.66 2900 1329 2900C1327.34 2900 1326 2898.66 1326 2897C1326 2895.34 1327.34 2894 1329 2894Z " fill="#8ab43b" transform="matrix(1,0,0,1,-1160.19625,-2877)"></path></svg>