<svg id="SvgjsSvg1066" xmlns="http://www.w3.org/2000/svg" version="1.1" xmlns:xlink="http://www.w3.org/1999/xlink" xmlns:svgjs="http://svgjs.com/svgjs" width="1028" height="41"><defs id="SvgjsDefs1067"></defs><path id="SvgjsPath1068" d="M1771 3135.87C1771 3135.87 1770.07213 3135.94326 1768.25386 3136.0801899999997C1768.27861 3135.8955599999995 1768.28458 3135.7047999999995 1768.27 3135.5099999999998C1768.16 3134.06 1766.91 3132.99 1765.46 3133.1C1764.02 3133.21 1762.9 3134.45 1763.04 3135.92C1763.0538999999999 3136.10696 1763.08598 3136.2869100000003 1763.13437 3136.4584C1762.17519 3136.52809 1761.1304 3136.60342 1760.00117 3136.68409C1760.02628 3136.50151 1760.03312 3136.31282 1760.02 3136.1200000000003C1759.92 3134.6600000000003 1758.66 3133.6000000000004 1757.22 3133.7000000000003C1755.77 3133.8 1754.66 3135.0400000000004 1754.79 3136.51C1754.8025599999999 3136.6958900000004 1754.8332599999999 3136.8748400000004 1754.88023 3137.04547C1753.8814399999999 3137.11513 1752.83788 3137.18745 1751.75003 3137.26232C1751.77598 3137.07728 1751.78324 3136.8858299999997 1751.77 3136.6899999999996C1751.67 3135.24 1750.42 3134.1699999999996 1748.97 3134.2699999999995C1747.52 3134.3699999999994 1746.4 3135.5999999999995 1746.53 3137.0699999999997C1746.5427 3137.25798 1746.57396 3137.4390299999995 1746.62182 3137.6116599999996C1745.6048500000002 3137.6802499999994 1744.5574900000001 3137.7504799999997 1743.48001 3137.8222999999994C1743.5059899999999 3137.637289999999 1743.51324 3137.445829999999 1743.50001 3137.2499999999995C1743.41001 3135.7999999999997 1742.16001 3134.7299999999996 1740.71001 3134.8199999999997C1739.26001 3134.9199999999996 1738.14001 3136.1499999999996 1738.26001 3137.62C1738.27269 3137.8077399999997 1738.30388 3137.98855 1738.35162 3138.16098C1737.33042 3138.2278100000003 1736.2865299999999 3138.29577 1735.22013 3138.3648000000003C1735.2459199999998 3138.1820300000004 1735.25315 3137.99308 1735.24001 3137.8C1735.15001 3136.34 1733.90001 3135.27 1732.46001 3135.36C1731.01001 3135.4500000000003 1729.89001 3136.6800000000003 1730.01001 3138.1600000000003C1730.02127 3138.3451000000005 1730.05051 3138.52347 1730.0959 3138.6937000000003C1729.07184 3138.75887 1728.02972 3138.82486 1726.96965 3138.8916400000003C1726.99583 3138.70683 1727.00323 3138.5156 1726.99001 3138.32C1726.90001 3136.8700000000003 1725.66001 3135.79 1724.21001 3135.88C1722.77001 3135.98 1721.64001 3137.2000000000003 1721.76001 3138.6800000000003C1721.77129 3138.8641700000003 1721.80061 3139.0419100000004 1721.8461399999999 3139.21176C1720.81161 3139.27587 1719.76184 3139.34062 1718.6969399999998 3139.40596C1718.7235099999998 3139.2230600000003 1718.7317899999998 3139.0337600000003 1718.7199999999998 3138.84C1718.6399999999999 3137.3900000000003 1717.3899999999999 3136.31 1715.9499999999998 3136.4C1714.4999999999998 3136.4900000000002 1713.37 3137.71 1713.4899999999998 3139.1800000000003C1713.5013299999998 3139.36637 1713.5308999999997 3139.5460900000003 1713.5768099999998 3139.71768C1712.5452199999997 3139.77999 1711.5007499999997 3139.84279 1710.44348 3139.9060400000003C1710.4710599999999 3139.7231300000003 1710.48047 3139.5338 1710.4699899999998 3139.34C1710.37999 3137.88 1709.13999 3136.8 1707.6899899999999 3136.8900000000003C1706.2399899999998 3136.9700000000003 1705.10999 3138.2000000000003 1705.2299899999998 3139.6700000000005C1705.2401199999997 3139.8574200000007 1705.26885 3140.0381000000007 1705.3142599999999 3140.2105600000004C1704.27535 3140.2717600000005 1703.2251099999999 3140.3333500000003 1702.1635899999999 3140.3953100000003C1702.1910799999998 3140.2126300000004 1702.2004499999998 3140.02354 1702.1899899999999 3139.83001C1702.09999 3138.3800100000003 1700.85999 3137.29001 1699.4199899999999 3137.3800100000003C1697.9699899999998 3137.4600100000002 1696.83999 3138.6800100000005 1696.9499899999998 3140.1600100000005C1696.95996 3140.3445200000006 1696.98796 3140.5224900000003 1697.0321499999998 3140.6925300000007C1695.9871099999998 3140.7526000000007 1694.9319499999997 3140.8129800000006 1693.8667299999997 3140.8736400000007C1693.8933899999997 3140.6916200000005 1693.9017299999998 3140.5031100000006 1693.8899899999997 3140.3100100000006C1693.8099899999997 3138.860010000001 1692.5699899999997 3137.7700100000006 1691.1299899999997 3137.8500100000006C1689.6799899999996 3137.9300100000005 1688.5399899999998 3139.1500100000007 1688.6499899999997 3140.6300100000008C1688.6599899999997 3140.8149900000008 1688.6881099999996 3140.9934000000007 1688.7324899999996 3141.163850000001C1687.7013499999996 3141.221700000001 1686.6613999999997 3141.2797800000008 1685.6126899999997 3141.338080000001C1685.6407999999997 3141.154540000001 1685.6504999999997 3140.964520000001 1685.6399799999997 3140.770000000001C1685.5599799999998 3139.320000000001 1684.3199799999998 3138.230000000001 1682.8699799999997 3138.310000000001C1681.4299799999997 3138.390000000001 1680.2899799999998 3139.610000000001 1680.3999799999997 3141.090000000001C1680.4099299999996 3141.274030000001 1680.4376599999996 3141.451570000001 1680.4813799999997 3141.621230000001C1679.4368399999996 3141.678440000001 1678.3841399999997 3141.735840000001 1677.3233199999997 3141.793420000001C1677.3509399999998 3141.611480000001 1677.3604099999998 3141.423040000001 1677.3499799999997 3141.230000000001C1677.2699799999998 3139.780000000001 1676.0399799999998 3138.690000000001 1674.5899799999997 3138.770000000001C1673.1399799999997 3138.840000000001 1672.0099799999998 3140.060000000001 1672.1099799999997 3141.540000000001C1672.1199599999998 3141.7233300000007 1672.1478199999997 3141.900440000001 1672.1917699999997 3142.0698700000007C1671.1494699999996 3142.1256100000005 1670.0997599999996 3142.181490000001 1669.0426999999997 3142.2375000000006C1669.0707999999997 3142.0543000000007 1669.0804899999998 3141.8644800000006 1669.0699799999998 3141.6700000000005C1668.9999799999998 3140.2200000000007 1667.7599799999998 3139.1300000000006 1666.3199799999998 3139.2100000000005C1664.8699799999997 3139.2800000000007 1663.7299799999998 3140.5000000000005 1663.8299799999998 3141.9700000000007C1663.8400399999998 3142.1560800000007 1663.8682799999997 3142.3356800000006 1663.9128399999997 3142.507330000001C1662.8698899999997 3142.561780000001 1661.8201599999998 3142.616340000001 1660.7636599999998 3142.6710000000007C1660.79102 3142.4898200000007 1660.80036 3142.302190000001 1660.7899699999998 3142.1100000000006C1660.7199699999999 3140.6500000000005 1659.4799699999999 3139.5600000000004 1658.0399699999998 3139.640000000001C1656.5899699999998 3139.710000000001 1655.44997 3140.9300000000007 1655.5499699999998 3142.400000000001C1655.5599699999998 3142.585070000001 1655.5879599999998 3142.763730000001 1655.6320899999998 3142.934520000001C1654.5975399999998 3142.987250000001 1653.5568199999998 3143.0400700000014 1652.5099599999999 3143.092950000001C1652.5385099999999 3142.911170000001 1652.5490899999998 3142.722880000001 1652.5399699999998 3142.530000000001C1652.4599699999999 3141.0800000000013 1651.2299699999999 3139.980000000001 1649.7899699999998 3140.0600000000013C1648.3399699999998 3140.1300000000015 1647.19997 3141.3400000000015 1647.2999699999998 3142.8200000000015C1647.3086499999997 3143.0035300000013 1647.3351699999998 3143.1807600000016 1647.3777299999997 3143.3502700000017C1646.3311299999998 3143.4023500000017 1645.2786699999997 3143.454490000002 1644.2203799999997 3143.5066700000016C1644.2486199999998 3143.3267600000017 1644.2590399999997 3143.1405600000016 1644.2499599999996 3142.9500000000016C1644.1799599999997 3141.4900000000016 1642.9499599999997 3140.4000000000015 1641.4999599999996 3140.4700000000016C1640.0499599999996 3140.540000000002 1638.9099599999997 3141.750000000002 1638.9999599999996 3143.230000000002C1639.0098399999997 3143.4127900000017 1639.0372599999996 3143.589320000002 1639.0804599999997 3143.758210000002C1638.0419599999996 3143.8086500000018 1636.9980899999996 3143.859120000002 1635.9488799999997 3143.9096200000017C1635.9782499999997 3143.7257800000016 1635.9891999999998 3143.5352400000015 1635.9799699999996 3143.3400000000015C1635.9099699999997 3141.8900000000017 1634.6799699999997 3140.7900000000013 1633.2299699999996 3140.8600000000015C1631.7899699999996 3140.9300000000017 1630.6399699999997 3142.1400000000017 1630.7399699999996 3143.6200000000017C1630.7487299999996 3143.8051100000016 1630.7754699999996 3143.9838100000015 1630.8184099999996 3144.1546600000015C1629.7704999999996 3144.2043300000014 1628.7174799999996 3144.2540200000017 1627.6593699999996 3144.3037000000013C1627.6883099999995 3144.1217000000015 1627.6990999999996 3143.933150000001 1627.6899699999997 3143.7399900000014C1627.6199699999997 3142.2899900000016 1626.3899699999997 3141.189990000001 1624.9499699999997 3141.2599900000014C1623.4999699999996 3141.3199900000013 1622.3499699999998 3142.5299900000014 1622.4399699999997 3144.0099900000014C1622.4486999999997 3144.194600000001 1622.4754799999996 3144.372830000001 1622.5184899999997 3144.5432600000013C1621.4769799999997 3144.591420000001 1620.4307299999998 3144.6395800000014 1619.3797599999998 3144.6877300000015C1619.4084199999998 3144.5074900000013 1619.4190699999997 3144.3209300000017 1619.4099699999997 3144.1299900000013C1619.3399699999998 3142.6699900000012 1618.1199699999997 3141.5699900000013 1616.6699699999997 3141.6399900000015C1615.2199699999996 3141.6999900000014 1614.0699699999998 3142.9099900000015 1614.1599699999997 3144.3899900000015C1614.1686699999998 3144.5739400000016 1614.1952899999997 3144.7515600000015 1614.2380099999998 3144.9214600000014C1613.1996399999998 3144.9682900000016 1612.1568199999997 3145.015110000001 1611.1095899999998 3145.0619000000015C1611.13837 3144.8806000000013 1611.14909 3144.6926700000017 1611.1399699999997 3144.5000000000014C1611.0799699999998 3143.0500000000015 1609.8499699999998 3141.950000000001 1608.4099699999997 3142.0100000000016C1606.9599699999997 3142.0700000000015 1605.8099699999998 3143.2800000000016 1605.8999699999997 3144.7600000000016C1605.9073999999998 3144.9432500000016 1605.9327699999997 3145.1202200000016 1605.9742699999997 3145.2895400000016C1604.9255399999997 3145.3356600000016 1603.8725299999996 3145.3817500000014 1602.8152699999996 3145.4278000000018C1602.8456899999996 3145.244540000002 1602.8578599999996 3145.0546000000018 1602.8499699999995 3144.860000000002C1602.7899699999996 3143.410000000002 1601.5599699999996 3142.3100000000018 1600.1099699999995 3142.370000000002C1598.6699699999995 3142.430000000002 1597.5199699999996 3143.640000000002 1597.6099699999995 3145.120000000002C1597.6173999999996 3145.303250000002 1597.6426099999994 3145.480210000002 1597.6838399999995 3145.649520000002C1596.6385199999995 3145.694330000002 1595.5891699999995 3145.7390900000023 1594.5358299999994 3145.7838000000024C1594.5658499999993 3145.6019300000025 1594.5778099999993 3145.4133500000025 1594.5699699999993 3145.2200100000023C1594.5099699999994 3143.7700100000025 1593.2799699999994 3142.6600100000023 1591.8299699999993 3142.7300100000025C1590.3899699999993 3142.7900100000024 1589.2399699999994 3143.9900100000027 1589.3199699999993 3145.4700100000023C1589.3273999999994 3145.6533800000025 1589.3527999999994 3145.8306100000023 1589.3943299999994 3146.0002700000023C1588.3454599999993 3146.044070000002 1587.2927499999994 3146.0878100000023 1586.2362099999993 3146.1314900000025C1586.2659499999993 3145.9503300000024 1586.2777699999992 3145.7625400000024 1586.2699699999994 3145.5700100000026C1586.2099699999994 3144.120010000003 1584.9899699999994 3143.0100100000027 1583.5399699999994 3143.0700100000026C1582.0899699999993 3143.1300100000026 1580.9399699999994 3144.330010000003 1581.0199699999994 3145.8100100000024C1581.0274299999994 3145.9941100000024 1581.0528499999994 3146.1720300000025 1581.0944199999994 3146.3423200000025C1580.0552599999994 3146.3845800000026 1579.0125099999993 3146.4267700000023 1577.9661999999994 3146.4688900000024C1577.9958999999994 3146.2885300000025 1578.0077399999993 3146.101620000002 1577.9999699999994 3145.9100100000023C1577.9399699999994 3144.4600100000025 1576.7199699999994 3143.3500100000024 1575.2699699999994 3143.4100100000023C1573.8299699999993 3143.4600100000025 1572.6699699999995 3144.6700100000025 1572.7599699999994 3146.1400100000023C1572.7662099999993 3146.3246600000025 1572.7906599999994 3146.5030800000022 1572.8314899999993 3146.673860000002C1571.7855899999993 3146.715260000002 1570.7362299999993 3146.756580000002 1569.6834299999994 3146.797820000002C1569.7136899999994 3146.617810000002 1569.7264299999993 3146.431250000002 1569.7199699999994 3146.2400100000023C1569.6599699999995 3144.7900100000024 1568.4399699999994 3143.6800100000023 1566.9899699999994 3143.730010000002C1565.5499699999993 3143.790010000002 1564.3899699999995 3144.9900100000023 1564.4699699999994 3146.470010000002C1564.4773599999994 3146.652360000002 1564.5023699999995 3146.828640000002 1564.5432399999995 3146.997460000002C1563.4965599999996 3147.037760000002 1562.4465699999996 3147.077980000002 1561.3932899999995 3147.1181100000017C1561.4236599999995 3146.9381400000016 1561.4364399999995 3146.7515000000017 1561.4299699999995 3146.5600100000015C1561.3699699999995 3145.1000100000015 1560.1499699999995 3143.9900100000013 1558.6999699999994 3144.0500100000013C1557.2599699999994 3144.1100100000012 1556.0999699999995 3145.3000100000013 1556.1799699999995 3146.7800100000013C1556.1874299999995 3146.964060000001 1556.2126799999994 3147.141930000001 1556.2539599999996 3147.3122100000014C1555.2068399999996 3147.3514100000016 1554.1565499999995 3147.3905200000013 1553.1031199999995 3147.4295300000013C1553.1336099999996 3147.2489900000014 1553.1464499999995 3147.0618500000014 1553.1399699999995 3146.8700100000015C1553.0899699999995 3145.4200100000016 1551.8699699999995 3144.3100100000015 1550.4199699999995 3144.3600100000012C1548.9699699999994 3144.4100100000014 1547.8199699999996 3145.6100100000012 1547.8999699999995 3147.0900100000013C1547.9061399999996 3147.2725200000014 1547.9300899999994 3147.4489500000013 1547.9700599999994 3147.617920000001C1546.9271599999995 3147.655850000001 1545.8812499999995 3147.693690000001 1544.8323599999994 3147.731420000001C1544.8633499999994 3147.550300000001 1544.8764699999995 3147.362520000001 1544.8699699999995 3147.170010000001C1544.8199699999996 3145.7200100000014 1543.5999699999995 3144.6100100000012 1542.1499699999995 3144.660010000001C1540.6999699999994 3144.710010000001 1539.5499699999996 3145.910010000001 1539.6199699999995 3147.390010000001C1539.6273599999995 3147.571120000001 1539.6522099999995 3147.746470000001 1539.6928199999995 3147.914620000001C1538.6425499999996 3147.9517100000007 1537.5893699999995 3147.988700000001 1536.5332799999994 3148.0255700000007C1536.5636099999995 3147.846400000001 1536.5764099999994 3147.660610000001 1536.5699699999993 3147.4700000000007C1536.5199699999994 3146.020000000001 1535.3099699999993 3144.9000000000005 1533.8599699999993 3144.9500000000007C1532.4099699999992 3145.000000000001 1531.2499699999994 3146.2000000000007 1531.3299699999993 3147.6800000000007C1531.3361099999993 3147.8605900000007 1531.3597599999994 3148.0354500000008 1531.3992099999994 3148.203160000001C1530.3497299999995 3148.239120000001 1529.2974599999993 3148.274970000001 1528.2423999999994 3148.310700000001C1528.2733599999995 3148.129950000001 1528.2864699999993 3147.942430000001 1528.2799699999994 3147.750010000001C1528.2299699999994 3146.3000100000013 1527.0199699999994 3145.190010000001 1525.5699699999993 3145.230010000001C1524.1199699999993 3145.2800100000013 1522.9599699999994 3146.480010000001 1523.0399699999994 3147.950010000001C1523.0449499999993 3148.1341700000007 1523.0681899999993 3148.3122900000008 1523.1078799999993 3148.482930000001C1522.0644699999993 3148.517590000001 1521.0184199999994 3148.552130000001 1519.9697099999994 3148.586550000001C1520.0011399999994 3148.407100000001 1520.0151199999993 3148.2209700000008 1520.0099599999994 3148.030010000001C1519.9599599999995 3146.570010000001 1518.7499599999994 3145.4600100000007 1517.2999599999994 3145.5000100000007C1515.8499599999993 3145.550010000001 1514.6899599999995 3146.7400100000004 1514.7599599999994 3148.2200100000005C1514.7661899999994 3148.4044000000004 1514.7904199999994 3148.5827300000005 1514.8308799999993 3148.7535600000006C1513.7864899999993 3148.7871600000008 1512.7395399999994 3148.8206500000006 1511.6900499999992 3148.8540000000007C1511.7212399999992 3148.6754700000006 1511.7350999999992 3148.4902200000006 1511.7299499999992 3148.300010000001C1511.6799499999993 3146.840010000001 1510.4699499999992 3145.720010000001 1509.0199499999992 3145.7700100000006C1507.5699499999992 3145.8100100000006 1506.4099499999993 3147.0100100000004 1506.4799499999992 3148.4800100000007C1506.4849499999993 3148.6650400000008 1506.5082399999992 3148.8441200000007 1506.5479899999993 3149.015770000001C1505.5016299999993 3149.048350000001 1504.4527899999994 3149.080810000001 1503.4014999999993 3149.113130000001C1503.4330499999992 3148.931630000001 1503.4464799999992 3148.743300000001 1503.4399499999993 3148.5500100000013C1503.3999499999993 3147.1000100000015 1502.1899499999993 3145.980010000001 1500.7399499999992 3146.020010000001C1499.2899499999992 3146.0700100000013 1498.1199499999993 3147.260010000001 1498.1899499999993 3148.740010000001C1498.1961299999994 3148.922950000001 1498.2200299999993 3149.0999300000008 1498.2599199999993 3149.269550000001C1497.2121899999993 3149.301090000001 1496.1620599999992 3149.332500000001 1495.1095699999994 3149.363770000001C1495.1410999999994 3149.185090000001 1495.1551199999994 3148.999890000001 1495.1499499999993 3148.810010000001C1495.1099499999993 3147.350010000001 1493.8999499999993 3146.230010000001 1492.4499499999993 3146.270010000001C1490.9999499999992 3146.3200100000013 1489.8299499999994 3147.510010000001 1489.8999499999993 3148.980010000001C1489.9049399999992 3149.164710000001 1489.9281599999993 3149.3435000000013 1489.9677899999992 3149.514880000001C1488.9172499999993 3149.5454200000013 1487.8643999999993 3149.575820000001 1486.8092499999993 3149.606080000001C1486.8409699999993 3149.426910000001 1486.8551099999993 3149.240950000001 1486.8499499999994 3149.050010000001C1486.7999499999994 3147.590010000001 1485.5999499999994 3146.470010000001 1484.1499499999993 3146.510010000001C1482.6999499999993 3146.550010000001 1481.5299499999994 3147.740010000001 1481.5999499999994 3149.220010000001C1481.6049099999993 3149.403640000001 1481.6278899999993 3149.581420000001 1481.6670999999994 3149.751900000001C1480.6176199999995 3149.781330000001 1479.5659099999993 3149.810610000001 1478.5119899999995 3149.839750000001C1478.5431999999996 3149.659450000001 1478.5564499999996 3149.472260000001 1478.5499499999996 3149.280020000001C1478.5099499999997 3147.8300200000012 1477.3099499999996 3146.700020000001 1475.8599499999996 3146.740020000001C1474.4099499999995 3146.780020000001 1473.2399499999997 3147.970020000001 1473.3099499999996 3149.450020000001C1473.3148999999996 3149.633000000001 1473.3375699999997 3149.8101800000013 1473.3762599999995 3149.980100000001C1472.3294799999996 3150.008370000001 1471.2805599999995 3150.036500000001 1470.2294999999995 3150.064480000001C1470.2610399999994 3149.885810000001 1470.2750899999994 3149.700400000001 1470.2699499999994 3149.510010000001C1470.2299499999995 3148.050010000001 1469.0199499999994 3146.930010000001 1467.5699499999994 3146.970010000001C1466.1199499999993 3147.000010000001 1464.9599499999995 3148.1900100000007 1465.0199499999994 3149.6700100000007C1465.0248899999995 3149.8528700000006 1465.0475399999993 3150.0299300000006 1465.0861799999993 3150.199760000001C1464.0389999999993 3150.226970000001 1462.9897499999993 3150.254030000001 1461.9384299999992 3150.280940000001C1461.9707199999993 3150.100150000001 1461.9851499999993 3149.912540000001 1461.9799399999993 3149.720020000001C1461.9499399999993 3148.2700200000013 1460.7399399999993 3147.150020000001 1459.2899399999992 3147.180020000001C1457.8399399999992 3147.220020000001 1456.6699399999993 3148.400020000001 1456.7299399999993 3149.880020000001C1456.7348899999993 3150.063290000001 1456.7576399999994 3150.240740000001 1456.7964399999992 3150.410920000001C1455.7525399999993 3150.4369800000013 1454.7066399999992 3150.462880000001 1453.6587599999991 3150.488630000001C1453.6908199999991 3150.308690000001 1453.7051299999991 3150.121880000001 1453.699939999999 3149.930020000001C1453.669939999999 3148.4800200000013 1452.459939999999 3147.350020000001 1451.009939999999 3147.390020000001C1449.559939999999 3147.4200200000014 1448.3899399999991 3148.600020000001 1448.449939999999 3150.0800200000012C1448.454919999999 3150.264160000001 1448.477849999999 3150.442410000001 1448.5169899999992 3150.6133400000012C1447.4694099999992 3150.638420000001 1446.4198799999992 3150.6633400000014 1445.368419999999 3150.688100000001C1445.400679999999 3150.5083200000013 1445.4151199999992 3150.321690000001 1445.409939999999 3150.1300200000014C1445.3799399999991 3148.6800200000016 1444.179939999999 3147.5500200000015 1442.729939999999 3147.5800200000012C1441.279939999999 3147.620020000001 1440.099939999999 3148.800020000001 1440.159939999999 3150.280020000001C1440.1648599999992 3150.462090000001 1440.187339999999 3150.638400000001 1440.2256699999991 3150.807570000001C1439.181739999999 3150.831490000001 1438.1359299999992 3150.8552600000007 1437.088269999999 3150.8788600000007C1437.120629999999 3150.698860000001 1437.135119999999 3150.5119600000007 1437.1299299999991 3150.3200200000006C1437.0999299999992 3148.8700200000007 1435.8999299999991 3147.7400200000006 1434.449929999999 3147.7700200000004C1432.999929999999 3147.8100200000003 1431.8299299999992 3148.99002 1431.8899299999991 3150.4600200000004C1431.893659999999 3150.6438600000006 1431.915439999999 3150.8219900000004 1431.9534999999992 3150.9929200000006C1430.905619999999 3151.0158600000004 1429.855919999999 3151.0386500000004 1428.8044099999993 3151.0612600000004C1428.8380599999994 3150.8805200000006 1428.8538399999993 3150.69282 1428.8499299999992 3150.5000200000004C1428.8199299999992 3149.0500200000006 1427.6199299999992 3147.9200200000005 1426.169929999999 3147.95002C1424.719929999999 3147.9800200000004 1423.539929999999 3149.1600200000003 1423.5999299999992 3150.6400200000003C1423.6036399999991 3150.8230300000005 1423.6252399999992 3151.0002400000003 1423.6629899999991 3151.17021C1422.6089199999992 3151.19221 1421.553069999999 3151.21405 1420.4954399999992 3151.2357100000004C1420.5283799999993 3151.0566800000006 1420.5437999999992 3150.8708400000005 1420.5399299999992 3150.6800100000005C1420.5099299999993 3149.2200100000005 1419.3099299999992 3148.0900100000003 1417.8599299999992 3148.1200100000005C1416.4099299999991 3148.1500100000007 1415.2399299999993 3149.3300100000006 1415.2899299999992 3150.8100100000006C1415.2936299999992 3150.9925900000007 1415.3151399999992 3151.1695500000005 1415.3527299999992 3151.3394200000007C1414.3055899999993 3151.3602100000007 1413.2567299999992 3151.3808300000005 1412.2061699999992 3151.4012700000007C1412.2386099999992 3151.2237500000006 1412.2537699999993 3151.039420000001 1412.2499299999993 3150.850000000001C1412.2299299999993 3149.390000000001 1411.0299299999992 3148.2600000000007 1409.5799299999992 3148.290000000001C1408.1299299999991 3148.320000000001 1406.949929999999 3149.4900000000007 1406.9999299999993 3150.9700000000007C1407.0036299999992 3151.1527100000008 1407.0251699999992 3151.3297700000007 1407.0627999999992 3151.499750000001C1406.0151699999992 3151.519480000001 1404.9658799999993 3151.539030000001 1403.9149299999992 3151.5584200000008C1403.9482199999993 3151.3785700000008 1403.9638199999993 3151.191800000001 1403.9599299999993 3151.000000000001C1403.9399299999993 3149.550000000001 1402.7399299999993 3148.4100000000008 1401.2899299999992 3148.440000000001C1399.8399299999992 3148.470000000001 1398.6699299999993 3149.640000000001 1398.7199299999993 3151.120000000001C1398.7224099999994 3151.3033300000006 1398.7429899999993 3151.480990000001 1398.7799099999993 3151.651500000001C1397.7354599999992 3151.6701000000007 1396.6893999999993 3151.688530000001 1395.6417499999993 3151.7067900000006C1395.6758699999993 3151.5275700000007 1395.6925099999994 3151.3413800000008 1395.6899299999993 3151.1500100000007C1395.6599299999993 3149.700010000001 1394.4699299999993 3148.5600100000006 1393.0199299999992 3148.590010000001C1391.5699299999992 3148.610010000001 1390.3899299999991 3149.7900100000006 1390.4399299999993 3151.2700100000006C1390.4423799999993 3151.4510700000005 1390.4624799999992 3151.6264500000007 1390.4985499999993 3151.7947800000006C1389.4488199999994 3151.8124100000005 1388.3975099999993 3151.8298500000005 1387.3446299999994 3151.847120000001C1387.3780999999994 3151.6678000000006 1387.3938099999993 3151.481500000001 1387.3899299999994 3151.2900100000006C1387.3699299999994 3149.840010000001 1386.1799299999993 3148.7000100000005 1384.7299299999993 3148.7300100000007C1383.2799299999992 3148.7500100000007 1382.0999299999992 3149.9200100000007 1382.1399299999994 3151.4000100000007C1382.1436299999993 3151.5827300000005 1382.1650199999995 3151.7598200000007 1382.2023899999995 3151.929830000001C1381.1545499999995 3151.946350000001 1380.1051899999995 3151.9626900000007 1379.0543099999995 3151.978860000001C1379.0880099999995 3151.799010000001 1379.1038299999996 3151.612120000001 1379.0999299999996 3151.420010000001C1379.0799299999996 3149.9700100000014 1377.8899299999996 3148.830010000001 1376.4399299999995 3148.850010000001C1374.9899299999995 3148.880010000001 1373.8099299999994 3150.050010000001 1373.8499299999996 3151.530010000001C1373.8536099999997 3151.7114700000006 1373.8747299999995 3151.887380000001 1373.9116199999996 3152.056310000001C1372.8700999999996 3152.0716700000007 1371.8271099999997 3152.086840000001 1370.7826599999996 3152.1018400000007C1370.8161699999996 3151.924160000001 1370.8324899999996 3151.739630000001 1370.8299199999997 3151.550010000001C1370.8099199999997 3150.090010000001 1369.6199199999996 3148.950010000001 1368.1699199999996 3148.9800100000007C1366.7199199999995 3149.0000100000007 1365.5399199999995 3150.1700100000007 1365.5799199999997 3151.6500100000007C1365.5823599999997 3151.8306700000007 1365.6022399999997 3152.0058200000008 1365.6378899999997 3152.1740800000007C1364.5839499999997 3152.1885400000006 1363.5285499999998 3152.202820000001 1362.4716999999998 3152.2169100000006C1362.5058599999998 3152.0376800000004 1362.5225099999998 3151.8514400000004 1362.5199199999997 3151.6600200000007C1362.4999199999997 3150.210020000001 1361.3099199999997 3149.0700200000006 1359.8599199999996 3149.0900200000005C1358.4099199999996 3149.1100200000005 1357.2299199999995 3150.2800200000006 1357.2699199999997 3151.7600200000006C1357.2723599999997 3151.940600000001 1357.2922199999998 3152.1156700000006 1357.3278399999997 3152.2838500000007C1356.2796299999998 3152.2971600000005 1355.2300199999997 3152.3102800000006 1354.1790199999998 3152.323210000001C1354.2136799999998 3152.145130000001 1354.23121 3151.960130000001 1354.2299199999998 3151.770020000001C1354.2099199999998 3150.310020000001 1353.0199199999997 3149.170020000001 1351.5699199999997 3149.190020000001C1350.1199199999996 3149.210020000001 1348.9399199999996 3150.380020000001 1348.9799199999998 3151.860020000001C1348.9823699999997 3152.040950000001 1349.0021499999998 3152.216350000001 1349.0376399999998 3152.384830000001C1347.9938899999997 3152.397010000001 1346.9487899999997 3152.409000000001 1345.9023399999999 3152.420800000001C1345.9360399999998 3152.243590000001 1345.95248 3152.059420000001 1345.9499199999998 3151.870010000001C1345.9399199999998 3150.410010000001 1344.7499199999997 3149.270010000001 1343.2999199999997 3149.290010000001C1341.8499199999997 3149.3000100000013 1340.6599199999996 3150.470010000001 1340.7099199999998 3151.950010000001C1340.7111499999999 3152.131750000001 1340.7301699999998 3152.307910000001 1340.7652799999998 3152.477100000001C1339.7123399999998 3152.488310000001 1338.6580599999998 3152.499320000001 1337.60244 3152.510140000001C1337.63608 3152.333130000001 1337.65247 3152.149190000001 1337.6499199999998 3151.9600100000007C1337.6399199999998 3150.5000100000007 1336.4499199999998 3149.360010000001 1334.9999199999997 3149.3700100000005C1333.5499199999997 3149.3900100000005 1332.3599199999996 3150.5500100000004 1332.3999199999998 3152.0300100000004C1332.4023899999997 3152.2130700000002 1332.4226099999998 3152.3906200000006 1332.4588999999999 3152.5612100000003C1331.4135399999998 3152.57126 1330.3668999999998 3152.58111 1329.3189699999998 3152.5907700000002C1329.3536399999998 3152.4135800000004 1329.3711999999998 3152.22942 1329.3699199999999 3152.04001C1329.3499199999999 3150.58001 1328.1699199999998 3149.4400100000003 1326.7199199999998 3149.45001C1325.2699199999997 3149.4600100000002 1324.0799199999997 3150.63001 1324.1199199999999 3152.11001C1324.12115 3152.29141 1324.1400999999998 3152.4674 1324.1750799999998 3152.6365499999997C1323.1308199999999 3152.64551 1322.0853099999997 3152.6542699999995 1321.0385599999997 3152.6628399999995C1321.0734999999997 3152.4850199999996 1321.0911999999998 3152.3001499999996 1321.0899099999997 3152.1100099999994C1321.0799099999997 3150.6500099999994 1319.8899099999996 3149.5100099999995 1318.4399099999996 3149.5200099999993C1316.9899099999996 3149.5300099999995 1315.7999099999995 3150.700009999999 1315.8399099999997 3152.180009999999C1315.8411299999998 3152.360389999999 1315.8598799999997 3152.535279999999 1315.8944899999997 3152.703309999999C1314.8401999999996 3152.711269999999 1313.7846699999998 3152.719019999999 1312.7279099999996 3152.726579999999C1312.7632799999997 3152.5474799999993 1312.7812099999996 3152.3613299999993 1312.7799099999995 3152.170009999999C1312.7699099999995 3150.720009999999 1311.5899099999995 3149.570009999999 1310.1399099999994 3149.5800099999988C1308.6899099999994 3149.590009999999 1307.4999099999993 3150.750009999999 1307.5299099999995 3152.230009999999C1307.5311499999996 3152.413239999999 1307.5504699999995 3152.5909599999986 1307.5861399999994 3152.761689999999C1306.5437599999993 3152.768469999999 1305.5001999999995 3152.775059999999 1304.4554599999994 3152.781449999999C1304.4911899999995 3152.604059999999 1304.5099099999995 3152.419659999999 1304.5099099999995 3152.230009999999C1304.4999099999995 3150.780009999999 1303.3199099999995 3149.630009999999 1301.8699099999994 3149.6400099999987C1300.4199099999994 3149.6400099999987 1299.2299099999993 3150.8000099999986 1299.2599099999995 3152.2800099999986C1299.2611499999996 3152.462929999999 1299.2802499999996 3152.6404999999986 1299.3155299999996 3152.8112299999984C1298.2607099999996 3152.8169999999986 1297.2046999999995 3152.8225699999984 1296.1475299999997 3152.8279299999986C1296.1831599999998 3152.6485499999985 1296.2012099999997 3152.4619699999985 1296.1999099999998 3152.2700099999984C1296.1999099999998 3150.8200099999985 1295.0199099999998 3149.6700099999985 1293.5699099999997 3149.680009999998C1292.1199099999997 3149.6900099999984 1290.9199099999996 3150.840009999998 1290.9599099999998 3152.320009999998C1290.9599099999998 3152.503319999998 1290.9780099999998 3152.681259999998 1291.0124899999998 3152.852329999998C1289.9609999999998 3152.856989999998 1288.9083699999999 3152.861439999998 1287.8546 3152.865689999998C1287.89089 3152.6869999999976 1287.9099099999999 3152.5011699999977 1287.9099099999999 3152.310009999998C1287.8999099999999 3150.860009999998 1286.7299099999998 3149.710009999998 1285.2799099999997 3149.710009999998C1283.8299099999997 3149.720009999998 1282.6299099999997 3150.880009999998 1282.6599099999999 3152.360009999998C1282.66113 3152.540749999998 1282.6798 3152.716119999998 1282.71428 3152.884739999998C1281.66653 3152.888289999998 1280.6176699999999 3152.8916299999983 1279.5677099999998 3152.8947599999983C1279.6031899999998 3152.7163599999985 1279.6211899999998 3152.5308399999985 1279.6199 3152.3399999999983C1279.6199 3150.8899999999985 1278.4398999999999 3149.7399999999984 1276.9898999999998 3149.7399999999984C1275.5398999999998 3149.7399999999984 1274.3498999999997 3150.8999999999983 1274.3799 3152.3799999999983C1274.3799 3152.5619199999983 1274.39773 3152.738549999998 1274.4316999999999 3152.908429999998C1273.38377 3152.910879999998 1272.3347499999998 3152.9131199999983 1271.2846699999998 3152.915159999998C1271.32092 3152.7366399999983 1271.3398999999997 3152.550979999998 1271.3398999999997 3152.3599999999983C1271.3398999999997 3150.9099999999985 1270.1598999999997 3149.7599999999984 1268.7098999999996 3149.7599999999984C1267.2598999999996 3149.7599999999984 1266.0698999999995 3150.9199999999983 1266.0898999999997 3152.3999999999983C1266.0911199999998 3152.580289999998 1266.1095499999997 3152.7552299999984 1266.1435999999997 3152.923459999998C1265.0915599999996 3152.9248199999984 1264.0384599999998 3152.925959999998 1262.9843099999996 3152.926899999998C1263.0207899999996 3152.747849999998 1263.0398899999996 3152.561609999998 1263.0398899999996 3152.369999999998C1263.0398899999996 3150.9199999999983 1261.8598899999995 3149.759999999998 1260.4198899999997 3149.769999999998C1258.9698899999996 3149.769999999998 1257.7698899999996 3150.9199999999983 1257.7898899999996 3152.3999999999983C1257.7911199999996 3152.5823999999984 1257.8099699999996 3152.7594799999983 1257.8447999999996 3152.929779999998C1257.2301799999996 3152.929919999998 1256.6152099999997 3152.929999999998 1255.9998899999996 3152.929999999998C1255.5648099999996 3152.929999999998 1255.1299099999997 3152.929959999998 1254.6951799999997 3152.929889999998C1254.7310799999998 3152.7531299999982 1254.7498899999996 3152.569259999998 1254.7498899999996 3152.3799999999983C1254.7498899999996 3150.9199999999983 1253.5798899999995 3149.769999999998 1252.1298899999997 3149.769999999998C1250.6798899999997 3149.769999999998 1249.4798899999996 3150.9199999999983 1249.4998899999996 3152.3999999999983C1249.4998899999996 3152.581529999998 1249.5174899999995 3152.7577999999985 1249.5510499999996 3152.9273599999983C1248.5066199999997 3152.926499999998 1247.4632499999996 3152.925439999998 1246.4209399999995 3152.9241699999984C1246.4583599999996 3152.7460999999985 1246.4785999999995 3152.5607899999986 1246.4798899999996 3152.3699999999985C1246.4798899999996 3150.9199999999987 1245.3098899999995 3149.7599999999984 1243.8598899999997 3149.7599999999984C1242.4098899999997 3149.7599999999984 1241.2098899999996 3150.9099999999985 1241.2298899999996 3152.3899999999985C1241.2298899999996 3152.5711299999984 1241.2474099999997 3152.7470199999984 1241.2808299999997 3152.9162399999987C1240.2233999999996 3152.9142599999986 1239.1670799999997 3152.9120799999987 1238.1118799999997 3152.909679999999C1238.1486999999997 3152.732999999999 1238.1686099999997 3152.549199999999 1238.1698899999997 3152.3599999999988C1238.1698899999997 3150.8999999999987 1236.9998899999996 3149.7499999999986 1235.5498899999998 3149.739999999999C1234.0998899999997 3149.739999999999 1232.8998899999997 3150.889999999999 1232.9198899999997 3152.369999999999C1232.9198899999997 3152.551169999999 1232.9374199999997 3152.727089999999 1232.9708499999997 3152.896339999999C1231.9205699999998 3152.8932699999987 1230.8714199999997 3152.889999999999 1229.8233899999998 3152.8865199999987C1229.8604399999997 3152.7077299999987 1229.8798899999997 3152.521629999999 1229.8798899999997 3152.3299999999986C1229.8898899999997 3150.8799999999987 1228.7098899999996 3149.7199999999984 1227.2698899999998 3149.7199999999984C1225.8198899999998 3149.709999999998 1224.6098899999997 3150.8599999999983 1224.6298899999997 3152.3399999999983C1224.6298899999997 3152.5216799999985 1224.6475199999998 3152.6980799999983 1224.6811399999997 3152.8677899999984C1223.6297299999997 3152.8636199999983 1222.5794799999996 3152.8592399999984 1221.5303799999997 3152.8546699999984C1221.5681599999998 3152.6764599999983 1221.5885999999996 3152.490979999998 1221.5898899999997 3152.2999999999984C1221.5898899999997 3150.8499999999985 1220.4298899999997 3149.6899999999982 1218.9798899999998 3149.6799999999985C1217.5298899999998 3149.6699999999983 1216.3198899999998 3150.8199999999983 1216.3398899999997 3152.2999999999984C1216.3386599999997 3152.4825299999984 1216.3553699999998 3152.6598799999983 1216.3883499999997 3152.8305699999983C1215.3423399999997 3152.8253299999983 1214.2974999999997 3152.8198899999984 1213.2538399999996 3152.814249999998C1213.2906099999996 3152.636179999998 1213.3098899999995 3152.450829999998 1213.3098899999995 3152.260009999998C1213.3198899999995 3150.8100099999983 1212.1498899999995 3149.650009999998 1210.6998899999996 3149.6400099999983C1209.2498899999996 3149.630009999998 1208.0498899999996 3150.780009999998 1208.0598899999995 3152.260009999998C1208.0598899999995 3152.4406099999983 1208.0771599999996 3152.6160099999984 1208.1101299999996 3152.7847899999983C1207.0557799999995 3152.7784099999985 1206.0026399999995 3152.7718299999983 1204.9507299999996 3152.765049999998C1204.9882899999996 3152.586729999998 1205.0085899999995 3152.4011299999984 1205.0098899999996 3152.210019999998C1205.0198899999996 3150.7600199999983 1203.8598899999995 3149.600019999998 1202.4098899999997 3149.5900199999983C1200.9598899999996 3149.580019999998 1199.7498899999996 3150.7200199999984 1199.7598899999996 3152.2000199999984C1199.7586599999995 3152.3824199999985 1199.7753499999997 3152.5596499999983 1199.8082799999995 3152.7302399999985C1198.7548899999995 3152.7227699999985 1197.7027499999995 3152.7150999999985 1196.6518599999995 3152.7072299999986C1196.6886999999995 3152.531459999999 1196.7086199999994 3152.3484899999985 1196.7098999999994 3152.1600199999984C1196.7198999999994 3150.7000199999984 1195.5598999999993 3149.5400199999985 1194.1098999999995 3149.5300199999983C1192.6598999999994 3149.5100199999983 1191.4498999999994 3150.6600199999984 1191.4598999999994 3152.1400199999985C1191.4586799999993 3152.3212799999983 1191.4751499999993 3152.4974499999985 1191.5076699999993 3152.6670599999984C1190.4608699999992 3152.6585499999983 1189.4153399999993 3152.649839999998 1188.3710799999992 3152.6409399999984C1188.4084199999993 3152.4640299999983 1188.4286099999993 3152.2798199999984 1188.4298999999992 3152.0900199999983C1188.4498999999992 3150.6300199999982 1187.279899999999 3149.4700199999984 1185.8298999999993 3149.460019999998C1184.3798999999992 3149.440019999998 1183.1698999999992 3150.5900199999983 1183.1798999999992 3152.0700199999983C1183.178679999999 3152.2507099999984 1183.1950499999991 3152.4263299999984 1183.2273599999992 3152.5954499999984C1182.1824999999992 3152.5858699999985 1181.1389299999992 3152.5760999999984 1180.0966699999992 3152.5661399999985C1180.1356299999993 3152.3875099999987 1180.1573099999991 3152.2015299999985 1180.1598999999992 3152.0100199999983C1180.1698999999992 3150.5600199999985 1179.009899999999 3149.3900199999985 1177.5598999999993 3149.3800199999982C1176.1098999999992 3149.3600199999983 1174.8998999999992 3150.5100199999983 1174.9098999999992 3151.9900199999984C1174.908679999999 3152.1706799999984 1174.924889999999 3152.3462799999984 1174.9569399999991 3152.5153699999983C1173.905719999999 3152.504649999998 1172.855839999999 3152.493739999998 1171.8073199999992 3152.482629999998C1171.8458899999991 3152.305199999998 1171.8673299999991 3152.1204199999984 1171.8698999999992 3151.930009999998C1171.8798999999992 3150.4800099999984 1170.7198999999991 3149.3100099999983 1169.2698999999993 3149.2900099999983C1167.8198999999993 3149.280009999998 1166.6098999999992 3150.4200099999985 1166.6198999999992 3151.9000099999985C1166.6174499999993 3152.0810699999984 1166.6326699999993 3152.2570499999983 1166.6639099999993 3152.4265099999984C1165.6114599999994 3152.4146899999982 1164.5603899999994 3152.4026799999983 1163.5107199999993 3152.390479999998C1163.5482899999993 3152.2137199999984 1163.5686099999994 3152.0296599999983 1163.5698999999993 3151.840009999998C1163.5898999999993 3150.380009999998 1162.4298999999992 3149.220009999998 1160.9798999999994 3149.200009999998C1159.5298999999993 3149.180009999998 1158.3198999999993 3150.320009999998 1158.3298999999993 3151.800009999998C1158.3274399999993 3151.982009999998 1158.3428299999994 3152.158869999998 1158.3743999999992 3152.3291299999983C1157.3239699999992 3152.316249999998 1156.2749599999993 3152.303179999998 1155.2273799999991 3152.2899199999983C1155.2658999999992 3152.1134699999984 1155.2873399999992 3151.9296099999983 1155.289899999999 3151.7399999999984C1155.309899999999 3150.2799999999984 1154.149899999999 3149.1099999999983 1152.6998999999992 3149.0899999999983C1151.2498999999991 3149.079999999998 1150.029899999999 3150.209999999998 1150.039899999999 3151.6899999999982C1150.037419999999 3151.8732999999984 1150.053049999999 3152.051539999998 1150.0850799999992 3152.223199999998C1149.0310199999992 3152.209189999998 1147.9784299999992 3152.194989999998 1146.927319999999 3152.180609999998C1146.965879999999 3152.0038299999983 1146.987339999999 3151.819709999998 1146.9898999999991 3151.6299999999983C1147.009899999999 3150.1699999999983 1145.849899999999 3148.999999999998 1144.3998999999992 3148.979999999998C1142.9498999999992 3148.959999999998 1141.7398999999991 3150.099999999998 1141.7398999999991 3151.579999999998C1141.7374399999992 3151.761809999998 1141.752789999999 3151.938479999998 1141.7842999999991 3152.1085799999983C1140.733639999999 3152.0935299999983 1139.6844799999992 3152.0782999999983 1138.636819999999 3152.062879999998C1138.6756899999991 3151.8853799999983 1138.697319999999 3151.7005099999983 1138.699899999999 3151.509989999998C1138.719899999999 3150.0599899999984 1137.5698999999988 3148.8899899999983 1136.119899999999 3148.859989999998C1134.669899999999 3148.839989999998 1133.449899999999 3149.979989999998 1133.449899999999 3151.459989999998C1133.447459999999 3151.640719999998 1133.462609999999 3151.816369999998 1133.493739999999 3151.985559999998C1132.439609999999 3151.9693799999977 1131.387029999999 3151.953009999998 1130.336009999999 3151.9364599999976C1130.375399999999 3151.757879999998 1130.3973099999992 3151.5717899999977 1130.399899999999 3151.3799899999976C1130.419899999999 3149.929989999998 1129.2698999999989 3148.7599899999977 1127.819899999999 3148.7299899999975C1126.369899999999 3148.7099899999976 1125.149899999999 3149.8399899999977 1125.149899999999 3151.3199899999977C1125.1474199999989 3151.503539999998 1125.162929999999 3151.6820099999977 1125.194779999999 3151.853879999998C1124.146129999999 3151.836699999998 1123.0990599999989 3151.8193399999977 1122.053569999999 3151.8018099999977C1122.0933299999988 3151.6247899999976 1122.116039999999 3151.4402799999975 1122.1198899999988 3151.2499899999975C1122.1398899999988 3149.7899899999975 1120.9898899999987 3148.6199899999974 1119.5398899999989 3148.5999899999974C1118.0898899999988 3148.5699899999972 1116.8698899999988 3149.6999899999973 1116.8698899999988 3151.1799899999974C1116.8661699999989 3151.3635499999973 1116.880749999999 3151.5420399999975 1116.9119299999988 3151.7139399999974C1115.8610799999988 3151.6956499999974 1114.8118699999989 3151.6771799999974 1113.764299999999 3151.6585299999974C1113.8036099999988 3151.4825299999975 1113.826059999999 3151.2991199999974 1113.8298899999988 3151.1099899999977C1113.8598899999988 3149.6499899999976 1112.6998899999987 3148.4799899999975 1111.249889999999 3148.449989999998C1109.7998899999989 3148.4199899999976 1108.5798899999988 3149.559989999998 1108.5798899999988 3151.039989999998C1108.5762299999988 3151.220499999998 1108.5902699999988 3151.396089999998 1108.620379999999 3151.565329999998C1107.566059999999 3151.545889999998 1106.5134299999988 3151.526279999998 1105.462499999999 3151.506489999998C1105.502919999999 3151.328039999998 1105.525989999999 3151.141959999998 1105.529879999999 3150.949989999998C1105.5598799999989 3149.499989999998 1104.409879999999 3148.3199899999977 1102.959879999999 3148.289989999998C1101.509879999999 3148.269989999998 1100.289879999999 3149.399989999998 1100.279879999999 3150.879989999998C1100.277429999999 3151.061479999998 1100.292569999999 3151.237999999998 1100.323699999999 3151.4080999999983C1099.271579999999 3151.387619999998 1098.221189999999 3151.366969999998 1097.172549999999 3151.3461499999985C1097.2129499999992 3151.1678199999983 1097.235989999999 3150.9818499999983 1097.2398799999992 3150.7899899999984C1097.2698799999991 3149.3399899999986 1096.1198799999993 3148.1599899999983 1094.6698799999992 3148.1299899999985C1093.2198799999992 3148.0999899999983 1091.9898799999992 3149.2299899999985 1091.9898799999992 3150.7099899999985C1091.9861699999992 3150.8930099999984 1092.0005099999992 3151.0709899999983 1092.0312199999992 3151.2424299999984C1090.9862999999991 3151.2210199999986 1089.9431399999992 3151.1994399999985 1088.901759999999 3151.1776899999986C1088.942639999999 3150.9988899999985 1088.965979999999 3150.8123999999984 1088.969879999999 3150.619989999999C1088.999879999999 3149.169989999999 1087.849879999999 3147.9899899999987 1086.399879999999 3147.959989999999C1084.949879999999 3147.9299899999987 1083.729879999999 3149.059989999999 1083.719879999999 3150.539989999999C1083.716199999999 3150.7216799999987 1083.730299999999 3150.8983999999987 1083.760559999999 3151.0686899999987C1082.708439999999 3151.0460499999986 1081.658169999999 3151.0232399999986 1080.609739999999 3151.0002699999986C1080.650739999999 3150.8236799999986 1080.674719999999 3150.6396599999985 1080.679879999999 3150.4499899999987C1080.709879999999 3148.9899899999987 1079.559879999999 3147.809989999999 1078.109879999999 3147.7799899999986C1076.659879999999 3147.7499899999984 1075.439879999999 3148.869989999999 1075.429879999999 3150.349989999999C1075.426149999999 3150.5341499999986 1075.440689999999 3150.713359999999 1075.471799999999 3150.886059999999C1074.4224699999988 3150.862399999999 1073.375039999999 3150.8385799999987 1072.329499999999 3150.814589999999C1072.370659999999 3150.636749999999 1072.394709999999 3150.451289999999 1072.3998799999988 3150.259989999999C1072.4298799999988 3148.8099899999993 1071.279879999999 3147.6199899999992 1069.8298799999989 3147.589989999999C1068.3798799999988 3147.559989999999 1067.1598799999988 3148.679989999999 1067.1498799999988 3150.159989999999C1067.1449099999988 3150.3437799999992 1067.1582999999987 3150.5226399999992 1067.1883299999988 3150.695019999999C1066.1347199999989 3150.670179999999 1065.0830699999988 3150.645179999999 1064.033399999999 3150.620009999999C1064.073269999999 3150.4436999999994 1064.0960299999988 3150.259809999999 1064.0998799999988 3150.069989999999C1064.1398799999988 3148.609989999999 1062.989879999999 3147.429989999999 1061.539879999999 3147.389989999999C1060.0898799999989 3147.359989999999 1058.8698799999988 3148.4799899999994 1058.8498799999988 3149.9599899999994C1058.846149999999 3150.1438099999996 1058.860479999999 3150.3226899999995 1058.8912199999988 3150.4951099999994C1057.8349299999988 3150.4691099999995 1056.780679999999 3150.4429599999994 1055.7284799999989 3150.416649999999C1055.7702699999988 3150.238319999999 1055.7946899999988 3150.0521899999994 1055.799879999999 3149.859989999999C1055.8298799999989 3148.409989999999 1054.689879999999 3147.219989999999 1053.239879999999 3147.189989999999C1051.789879999999 3147.149989999999 1050.5598799999989 3148.269989999999 1050.549879999999 3149.749989999999C1050.544899999999 3149.934299999999 1050.5583699999988 3150.1136399999987 1050.588579999999 3150.286479999999C1049.546539999999 3150.259759999999 1048.506549999999 3150.2328799999987 1047.468629999999 3150.2058599999987C1047.510329999999 3150.0277899999987 1047.534689999999 3149.8419099999987 1047.539869999999 3149.649979999999C1047.579869999999 3148.199979999999 1046.429869999999 3147.009979999999 1044.979869999999 3146.969979999999C1043.529869999999 3146.929979999999 1042.299869999999 3148.059979999999 1042.289869999999 3149.539979999999C1042.2849499999988 3149.722119999999 1042.297899999999 3149.899409999999 1042.3270999999988 3150.070349999999C1041.268799999999 3150.042119999999 1040.212689999999 3150.013739999999 1039.1587799999988 3149.985199999999C1039.2003899999988 3149.807319999999 1039.2246899999989 3149.621669999999 1039.2298699999988 3149.4299699999992C1039.2698699999987 3147.9799699999994 1038.1298699999988 3146.7899699999994 1036.6698699999988 3146.7499699999994C1035.2298699999988 3146.7099699999994 1033.9898699999987 3147.8299699999993 1033.9798699999988 3149.3099699999993C1033.9749099999988 3149.4935299999993 1033.9880999999987 3149.6721699999994 1034.0177799999988 3149.844359999999C1032.9724299999987 3149.8153899999993 1031.9292899999987 3149.786269999999 1030.8883699999988 3149.7570099999994C1030.9302099999989 3149.5785799999994 1030.9546699999987 3149.3923099999993 1030.9598699999988 3149.1999599999995C1030.9998699999987 3147.7499599999996 1029.8598699999989 3146.5599599999996 1028.4098699999988 3146.5199599999996C1026.9598699999988 3146.4799599999997 1025.7298699999988 3147.5999599999996 1025.7098699999988 3149.0799599999996C1025.7049399999987 3149.2622799999995 1025.7180699999988 3149.4397399999993 1025.7475999999988 3149.61086C1024.691989999999 3149.58051 1023.6387199999988 3149.55001 1022.5877899999988 3149.5193799999997C1022.6299999999987 3149.34023 1022.6546399999988 3149.15316 1022.6598699999988 3148.9599599999997C1022.7098699999988 3147.50996 1021.5698699999988 3146.31996 1020.1198699999989 3146.27996C1018.6698699999988 3146.23996 1017.4298699999988 3147.34996 1017.4198699999988 3148.82996C1017.4136299999988 3149.0147 1017.4259299999989 3149.19462 1017.4550599999988 3149.3681C1016.4028799999987 3149.33675 1015.3530999999988 3149.30526 1014.3057399999988 3149.2736400000003C1014.3481099999988 3149.0962500000005 1014.3734199999988 3148.9111000000003 1014.3798699999987 3148.7199600000004C1014.4198699999987 3147.2599600000003 1013.2798699999987 3146.0699600000003 1011.8298699999988 3146.0299600000003C1010.3798699999987 3145.97996 1009.1498699999988 3147.0999600000005 1009.1298699999987 3148.5799600000005C1009.1236399999988 3148.7642300000007 1009.1358699999987 3148.9436900000005 1009.1648399999988 3149.1167600000003C1008.1192399999987 3149.08451 1007.0761099999987 3149.0521300000005 1006.0354499999988 3149.0196300000002C1006.0779999999988 3148.8434 1006.1034199999988 3148.65959 1006.1098699999989 3148.4699600000004C1006.1498699999988 3147.0099600000003 1005.0098699999988 3145.8199600000003 1003.5598699999989 3145.7699600000005C1002.1098699999989 3145.7299600000006 1000.879869999999 3146.8399600000007 1000.8598699999989 3148.3199600000007C1000.8536399999989 3148.504450000001 1000.8658999999989 3148.684120000001 1000.8949399999989 3148.8573900000006C999.8391599999989 3148.823720000001 998.7859899999988 3148.7899300000004 997.7354399999989 3148.7560100000005C997.7782099999989 3148.5780400000003 997.803639999999 3148.3921200000004 997.8098699999989 3148.1999700000006C997.855869999999 3146.7399700000005 996.7188699999989 3145.5499700000005 995.2688699999989 3145.4999700000008C993.8188699999988 3145.459970000001 992.5828699999988 3146.569970000001 992.5608699999989 3148.049970000001C992.5548799999989 3148.234810000001 992.5673599999989 3148.414820000001 992.5966399999988 3148.5884100000007C991.5425699999988 3148.5536900000006 990.4912099999989 3148.5188400000006 989.4425599999988 3148.483870000001C989.4851499999988 3148.306560000001 989.5105299999988 3148.121360000001 989.5168699999988 3147.929960000001C989.5658699999988 3146.479960000001 988.4308699999988 3145.2799600000008 986.9818699999988 3145.239960000001C985.5328699999989 3145.1899600000006 984.2948699999988 3146.2999600000007 984.2708699999988 3147.7799600000008C984.2647099999988 3147.9622800000006 984.2765499999988 3148.1397400000005 984.3047499999988 3148.3108700000007C983.2485899999988 3148.2749600000006 982.1952499999987 3148.238930000001 981.1447499999988 3148.2027900000007C981.1874999999987 3148.0258100000005 981.2131499999988 3147.8409700000007 981.2198599999988 3147.6499600000006C981.2698599999987 3146.199960000001 980.1358599999988 3144.9999600000006 978.6868599999988 3144.949960000001C977.2378599999988 3144.8999600000006 975.9988599999988 3146.009960000001 975.9728599999987 3147.489960000001C975.9665399999988 3147.6733600000007 975.9784299999988 3147.8519900000006 976.0068699999987 3148.0243300000006C974.9550699999987 3147.9874500000005 973.9061799999987 3147.9504600000005 972.8602199999987 3147.9133600000005C972.9031799999987 3147.7362100000005 972.9290099999987 3147.5511700000006 972.9358499999987 3147.3599600000007C972.9858499999987 3145.8999600000006 971.8528499999987 3144.7099600000006 970.4038499999987 3144.659960000001C968.9558499999987 3144.6099600000007 967.7158499999987 3145.719960000001 967.6888499999986 3147.199960000001C967.6824699999986 3147.381610000001 967.6939499999986 3147.558580000001 967.7216899999986 3147.729390000001C966.6723099999986 3147.6914700000007 965.6259499999986 3147.6534500000007 964.5826399999986 3147.615330000001C964.6259499999986 3147.437570000001 964.6519799999986 3147.251880000001 964.6588499999986 3147.059950000001C964.7118499999985 3145.6099500000014 963.5798499999986 3144.409950000001 962.1318499999985 3144.3599500000014C960.6828499999986 3144.2999500000014 959.4418499999985 3145.4099500000016 959.4118499999985 3146.8899500000016C959.4052599999985 3147.0739000000017 959.4169799999985 3147.2530700000016 959.4453399999985 3147.4259100000017C958.3916899999986 3147.3867100000016 957.3412199999985 3147.3474100000017 956.2939499999985 3147.3080200000018C956.3379499999985 3147.1294500000017 956.3645399999986 3146.9428500000017 956.3718399999985 3146.749960000002C956.4268399999985 3145.299960000002 955.2968399999985 3144.099960000002 953.8478399999985 3144.049960000002C952.3988399999986 3143.989960000002 951.1558399999985 3145.0999600000023 951.1258399999986 3146.5799600000023C951.1189199999985 3146.7629200000024 951.1301299999985 3146.9411300000024 951.1578499999986 3147.1131000000023C950.1111099999986 3147.073020000002 949.0676499999986 3147.0328600000025 948.0274999999986 3146.9926100000025C948.0709599999985 3146.8157000000024 948.0973599999985 3146.6309100000026 948.1048399999986 3146.4399600000024C948.1608399999986 3144.9799600000024 947.0318399999986 3143.7899600000023 945.5838399999986 3143.7299600000024C944.1348399999987 3143.6699600000024 942.8908399999987 3144.7799600000026 942.8588399999986 3146.2599600000026C942.8516799999986 3146.4425500000025 942.8626099999987 3146.6204200000025 942.8899899999986 3146.7920700000027C941.8324899999986 3146.750430000003 940.7784999999986 3146.7087100000026 939.7280499999987 3146.666920000003C939.7722799999987 3146.488700000003 939.7991699999986 3146.302460000003 939.8068399999987 3146.109960000003C939.8648399999987 3144.659960000003 938.7368399999987 3143.459960000003 937.2888399999987 3143.399960000003C935.8398399999987 3143.339960000003 934.5948399999987 3144.449960000003 934.5608399999987 3145.929960000003C934.5534199999987 3146.111870000003 934.5641999999988 3146.2893300000032 934.5915399999988 3146.4607900000033C933.5387599999988 3146.4181800000033 932.4896399999988 3146.3755000000033 931.4441899999988 3146.332750000003C931.4883299999988 3146.1557400000033 931.5151799999988 3145.9708900000032 931.5228399999988 3145.779960000003C931.5828399999988 3144.319960000003 930.4558399999988 3143.119960000003 929.0078399999989 3143.0599600000032C927.5588399999989 3142.9999600000033 926.3128399999988 3144.099960000003 926.2768399999989 3145.579960000003C926.2693199999989 3145.765560000003 926.2804699999989 3145.9464400000033 926.3086099999989 3146.120990000003C925.2582899999989 3146.077320000003 924.2118099999989 3146.033590000003 923.1691599999989 3145.989800000003C923.2141999999989 3145.810720000003 923.2417299999989 3145.623510000003 923.2498399999989 3145.429960000003C923.310839999999 3143.9799600000033 922.1848399999989 3142.779960000003 920.7358399999989 3142.719960000003C919.2878399999989 3142.649960000003 918.0398399999989 3143.759960000003 918.002839999999 3145.239960000003C917.995269999999 3145.422410000003 918.005979999999 3145.6003900000032 918.033329999999 3145.772320000003C916.978479999999 3145.727290000003 915.9276999999989 3145.6822000000034 914.880999999999 3145.6370700000034C914.925919999999 3145.4589600000036 914.9534999999989 3145.2726900000034 914.9618399999989 3145.0799700000034C915.0238399999989 3143.6299700000036 913.8998399999989 3142.4199700000036 912.4518399999989 3142.3599700000036C911.002839999999 3142.2999700000037 909.753839999999 3143.3999700000036 909.714839999999 3144.8799700000036C909.706919999999 3145.0631500000036 909.717229999999 3145.2415900000037 909.7441199999989 3145.4137700000038C908.6878099999989 3145.3674800000035 907.635809999999 3145.321150000004 906.5881399999989 3145.2747900000036C906.632879999999 3145.0973900000035 906.6604099999989 3144.9118700000035 906.6688399999989 3144.7199700000037C906.7328399999989 3143.2599700000037 905.6108399999989 3142.059970000004 904.161839999999 3141.9899700000037C902.712839999999 3141.929970000004 901.462839999999 3143.0299700000037 901.4228399999989 3144.5099700000037C901.4146499999989 3144.6936800000035 901.4247899999989 3144.8727700000036 901.4516099999989 3145.0456700000036C900.403779999999 3144.9985600000036 899.3604299999989 3144.9514200000035 898.321589999999 3144.9042600000034C898.366449999999 3144.7270200000034 898.394159999999 3144.5416900000037 898.402839999999 3144.3499800000036C898.469839999999 3142.8899800000036 897.348839999999 3141.6899800000037 895.8998399999989 3141.6199800000036C894.450839999999 3141.5499800000034 893.1988399999989 3142.649980000004 893.1568399999989 3144.129980000004C893.1484699999988 3144.314960000004 893.1586699999989 3144.4952500000036 893.1857499999988 3144.6692800000037C892.1343099999989 3144.6207900000036 891.0876599999989 3144.572300000004 890.0458199999988 3144.523790000004C890.0909299999988 3144.346850000004 890.1188999999988 3144.161680000004 890.1278399999989 3143.969980000004C890.1958399999988 3142.509980000004 889.0758399999988 3141.299980000004 887.6278399999989 3141.239980000004C886.1788399999989 3141.1699800000038 884.9258399999989 3142.259980000004 884.8818399999989 3143.739980000004C884.8730399999989 3143.926080000004 884.8830799999989 3144.1075900000037 884.9102499999989 3144.282840000004C883.8596099999988 3144.233160000004 882.8140599999989 3144.183490000004 881.7736299999989 3144.133840000004C881.8204199999989 3143.953700000004 881.8494799999988 3143.7651500000043 881.8588399999988 3143.569980000004C881.9268399999988 3142.119980000004 880.8078399999988 3140.909980000004 879.3598399999988 3140.839980000004C877.9098399999988 3140.7699800000037 876.6558399999989 3141.869980000004 876.6108399999988 3143.349980000004C876.6021299999989 3143.534100000004 876.6118399999988 3143.713570000004 876.6383099999988 3143.886850000004C875.5754199999988 3143.835340000004 874.5180899999988 3143.783850000004 873.4663599999988 3143.7323900000038C873.5120299999987 3143.555670000004 873.5404899999987 3143.3709500000036 873.5498399999988 3143.179980000004C873.6198399999988 3141.719980000004 872.5028399999987 3140.509980000004 871.0558399999987 3140.439980000004C869.6068399999988 3140.369980000004 868.3528399999988 3141.459980000004 868.3068399999987 3142.939980000004C868.2977199999987 3143.1248300000043 868.3071999999987 3143.305160000004 868.3335899999987 3143.4793400000044C867.2860399999987 3143.4273000000044 866.2442899999987 3143.3753100000044 865.2083699999987 3143.3233800000044C865.2544199999987 3143.1463700000045 865.2832099999987 3142.9613100000042 865.2928399999987 3142.7699800000046C865.3648399999987 3141.3099800000045 864.2498399999987 3140.0999800000045 862.8018399999987 3140.029980000005C861.3548399999987 3139.9599800000046 860.0988399999987 3141.049980000005 860.0498399999988 3142.529980000005C860.0406799999988 3142.713120000005 860.0497599999987 3142.891660000005 860.0754499999988 3143.0640800000047C859.0203599999988 3143.0103800000047 857.9716099999988 3142.956750000005 856.9292199999988 3142.9032000000047C856.9764299999988 3142.723270000005 857.0059599999988 3142.5349200000046 857.0158399999989 3142.3399800000047C857.0898399999988 3140.889980000005 855.9758399999989 3139.679980000005 854.5278399999988 3139.599980000005C853.0798399999989 3139.529980000005 851.8228399999988 3140.619980000005 851.7718399999989 3142.099980000005C851.7623799999989 3142.284200000005 851.7713999999988 3142.463930000005 851.7972499999988 3142.637570000005C850.7375099999988 3142.582300000005 849.6846899999988 3142.5271400000047 848.6388099999988 3142.4720900000048C848.6852699999988 3142.2954700000046 848.7145799999988 3142.110840000005 848.7248399999988 3141.9199800000047C848.8008399999989 3140.4599800000046 847.6888399999989 3139.2499800000046 846.2408399999988 3139.1699800000047C844.7928399999988 3139.0899800000047 843.5338399999988 3140.179980000005 843.4808399999988 3141.6599800000045C843.4709599999989 3141.8450100000045 843.4797299999988 3142.0255000000043 843.5054699999988 3142.1998600000043C842.4567599999988 3142.143830000004 841.4154199999988 3142.0879300000042 840.3814899999988 3142.0321800000042C840.4291999999989 3141.8527200000044 840.4593099999988 3141.664730000004 840.4698399999988 3141.4699800000044C840.5478399999988 3140.0199800000046 839.4378399999988 3138.8099800000045 837.9898399999988 3138.7299800000046C836.5418399999988 3138.6499800000047 835.2808399999989 3139.7299800000046 835.2258399999988 3141.2099800000046C835.2157699999988 3141.3962700000047 835.2245899999988 3141.5779600000046 835.2505799999988 3141.7534200000046C834.1905699999987 3141.6954000000046 833.1388199999988 3141.6375500000045 832.0953599999988 3141.5799100000045C832.1429499999988 3141.4011300000043 832.1730899999988 3141.2139100000045 832.1838399999988 3141.0199900000043C832.2638399999988 3139.5699900000045 831.1538399999988 3138.3499900000043 829.7068399999988 3138.2699900000043C828.2588399999988 3138.1899900000044 826.9968399999988 3139.2799900000045 826.9398399999988 3140.7499900000043C826.9294999999987 3140.936560000004 826.9381199999988 3141.1185300000043 826.9639899999987 3141.294260000004C825.9013699999987 3141.234660000004 824.8479299999988 3141.175290000004 823.8036999999987 3141.116180000004C823.8514699999987 3140.938480000004 823.8818399999986 3140.752490000004 823.8928399999987 3140.5599900000043C823.9748399999987 3139.0999900000043 822.8668399999988 3137.8799900000045 821.4188399999987 3137.799990000004C819.9718399999987 3137.719990000004 818.7078399999987 3138.799990000004 818.6488399999987 3140.279990000004C818.6383899999987 3140.466280000004 818.6468299999987 3140.647970000004 818.6724499999987 3140.823460000004C817.6166499999987 3140.7627700000044 816.5709499999987 3140.702370000004 815.5354199999987 3140.6422900000043C815.5838399999986 3140.4629600000044 815.6146399999986 3140.2749400000043 815.6258399999987 3140.0799900000043C815.7098399999986 3138.6299900000045 814.6038399999986 3137.409990000004 813.1558399999986 3137.319990000004C811.7078399999987 3137.239990000004 810.4428399999987 3138.319990000004 810.3828399999986 3139.799990000004C810.3720399999986 3139.9858800000043 810.3800699999986 3140.167190000004 810.4052499999987 3140.3423200000043C809.3482099999986 3140.2800300000044 808.3026099999987 3140.2181300000043 807.2685299999987 3140.156610000004C807.3164899999987 3139.979000000004 807.3472399999987 3139.7928900000043 807.3588399999987 3139.5999900000043C807.4448399999987 3138.1499900000044 806.3408399999987 3136.929990000004 804.8938399999987 3136.839990000004C803.4468399999987 3136.749990000004 802.1808399999987 3137.829990000004 802.1168399999987 3139.309990000004C802.1058599999986 3139.494710000004 802.1134699999986 3139.674910000004 802.1380299999987 3139.849010000004C801.0776599999987 3139.784930000004 800.0304999999987 3139.721340000004 798.9966499999987 3139.658260000004C799.0450299999986 3139.480150000004 799.0760799999987 3139.2934900000037 799.0878399999987 3139.099990000004C799.1768399999987 3137.649990000004 798.0738399999987 3136.419990000004 796.6268399999987 3136.329990000004C795.1798399999986 3136.249990000004 793.9118399999986 3137.3199900000036 793.8478399999987 3138.7999900000036C793.8364099999986 3138.9859000000038 793.8438499999986 3139.1673900000037 793.8684699999986 3139.3428200000035C792.8043599999986 3139.2768400000036 791.7558299999986 3139.2114800000036 790.7229799999986 3139.1467900000034C790.7720199999986 3138.9690800000035 790.8036299999986 3138.7828900000036 790.8158399999986 3138.5899900000036C790.9068399999986 3137.1399900000038 789.8068399999986 3135.9099900000037 788.3588399999986 3135.8199900000036C786.9118399999986 3135.7299900000035 785.6428399999986 3136.7999900000036 785.5748399999986 3138.2799900000036C785.5632799999986 3138.4659300000035 785.5705499999987 3138.647460000004 785.5949799999986 3138.8229200000037C784.5283799999986 3138.7549900000035 783.4806099999986 3138.6879000000035 782.4517899999986 3138.6216900000036C782.5013199999986 3138.442570000004 782.5333399999986 3138.2547500000037 782.5458399999986 3138.0600000000036C782.6408399999987 3136.6100000000038 781.5418399999986 3135.3800000000037 780.0948399999986 3135.2900000000036C778.6488399999986 3135.1900000000037 777.3758399999986 3136.2700000000036 777.3058399999986 3137.7500000000036C777.2938099999986 3137.9342500000034 777.3005599999987 3138.1144200000035 777.3244399999986 3138.2888000000034C776.2576699999986 3138.2189300000036 775.2144499999986 3138.1502100000034 774.1949499999986 3138.0826900000034C774.2451399999986 3137.9034300000035 774.2777799999985 3137.7152800000035 774.2908399999986 3137.520000000003C774.3878399999986 3136.0700000000033 773.2908399999986 3134.8400000000033 771.8438399999986 3134.740000000003C770.3978399999986 3134.650000000003 769.1228399999986 3135.720000000003 769.0498399999987 3137.200000000003C769.0375299999987 3137.384650000003 769.0440899999986 3137.565200000003 769.0678399999987 3137.739950000003C767.9915299999986 3137.667310000003 766.9470399999987 3137.5963800000027 765.9346399999987 3137.5272200000027C765.9848299999987 3137.349560000003 766.0175599999986 3137.163230000003 766.0308399999986 3136.9700000000025C766.1318399999986 3135.5100000000025 765.0378399999986 3134.2800000000025 763.5908399999986 3134.1800000000026C762.1448399999986 3134.0800000000027 760.8668399999985 3135.1500000000024 760.7908399999986 3136.6300000000024C760.7778199999987 3136.8158400000025 760.7839599999986 3136.9975300000024 760.8075499999986 3137.1733400000026C759.7170499999986 3137.0972700000025 758.6747899999987 3137.0240200000026 757.6812799999987 3136.9537500000024C757.7324199999987 3136.7741900000024 757.7659499999986 3136.5856800000024 757.7798299999987 3136.3900000000026C757.8838299999987 3134.940000000003 756.7938299999987 3133.7100000000028 755.3478299999987 3133.6000000000026C753.9008299999987 3133.5000000000027 752.6228299999987 3134.5600000000027 752.5418299999986 3136.0400000000027C752.5285499999986 3136.227150000003 752.5343999999986 3136.409990000003 752.5576699999987 3136.5868100000025C751.4029099999987 3136.5030200000024 750.3500299999987 3136.4258500000024 749.4005499999987 3136.3556700000026C749.4548099999987 3136.1663500000027 749.4893699999988 3135.967090000003 749.5018299999987 3135.7600000000025C749.5898299999986 3134.3100000000027 748.4858299999987 3133.0800000000027 747.0388299999987 3133.0000000000023C745.5928299999987 3132.910000000002 744.3248299999987 3133.990000000002 744.2608299999987 3135.470000000002C744.2504999999987 3135.640620000002 744.2562599999987 3135.807600000002 744.2767599999987 3135.969630000002C743.4293399999987 3135.904230000002 742.9998299999987 3135.8700000000017 742.9998299999987 3135.8700000000017L742.9998299999987 3174.000000000002L1770.9998299999988 3174.000000000002Z " fill="#8bb53c" transform="matrix(1,0,0,1,-740,-3133)"></path></svg>
