<svg id="Layer_1" data-name="Layer 1" xmlns="http://www.w3.org/2000/svg" viewBox="0 0 1028 40.91"><defs><style>.cls-1{fill:#8ab43b;}</style></defs><title>Untitled-1</title><path class="cls-1" d="M1028,0H0V38l2.75-.21a2.74,2.74,0,0,0,0,.57A2.63,2.63,0,0,0,8,38a2.68,2.68,0,0,0-.09-0.53L11,37.23a2.74,2.74,0,0,0,0,.57,2.62,2.62,0,0,0,5.23-.39,2.69,2.69,0,0,0-.09-0.53l3.13-.22a2.74,2.74,0,0,0,0,.57,2.63,2.63,0,0,0,5.24-.38,2.68,2.68,0,0,0-.09-0.53l3.14-.21a2.74,2.74,0,0,0,0,.57,2.63,2.63,0,0,0,5.24-.37,2.69,2.69,0,0,0-.09-0.53l3.13-.2a2.74,2.74,0,0,0,0,.57A2.62,2.62,0,0,0,41,35.76a2.69,2.69,0,0,0-.09-0.53L44,35a2.74,2.74,0,0,0,0,.56,2.62,2.62,0,0,0,5.24-.35,2.69,2.69,0,0,0-.09-0.53l3.14-.19a2.74,2.74,0,0,0,0,.56,2.62,2.62,0,0,0,5.24-.34,2.69,2.69,0,0,0-.09-0.53L60.56,34a2.74,2.74,0,0,0,0,.56,2.63,2.63,0,0,0,5.24-.34,2.69,2.69,0,0,0-.09-0.53l3.15-.18a2.74,2.74,0,0,0,0,.56,2.63,2.63,0,0,0,5.24-.33A2.69,2.69,0,0,0,74,33.23l3.16-.18a2.74,2.74,0,0,0,0,.56,2.63,2.63,0,0,0,5.24-.32,2.69,2.69,0,0,0-.08-0.53l3.12-.17a2.74,2.74,0,0,0,0,.56,2.63,2.63,0,0,0,5.24-.31,2.69,2.69,0,0,0-.08-0.53l3.16-.17a2.74,2.74,0,0,0,0,.56,2.62,2.62,0,0,0,5.24-.31,2.69,2.69,0,0,0-.08-0.53l3.15-.17a2.74,2.74,0,0,0,0,.56,2.62,2.62,0,0,0,5.24-.3,2.69,2.69,0,0,0-.08-0.53l3.15-.16a2.74,2.74,0,0,0,0,.56,2.62,2.62,0,0,0,5.24-.29,2.69,2.69,0,0,0-.08-0.53l3.12-.16a2.74,2.74,0,0,0,0,.56,2.62,2.62,0,0,0,5.24-.29,2.69,2.69,0,0,0-.08-0.53l3.16-.16a2.74,2.74,0,0,0,0,.56A2.62,2.62,0,0,0,132,30.7a2.69,2.69,0,0,0-.08-0.53l3.13-.15a2.74,2.74,0,0,0,0,.56,2.63,2.63,0,0,0,5.24-.28,2.69,2.69,0,0,0-.08-0.53l3.16-.15a2.74,2.74,0,0,0,0,.56,2.63,2.63,0,0,0,5.24-.27,2.69,2.69,0,0,0-.08-0.53l3.15-.14a2.75,2.75,0,0,0,0,.56,2.63,2.63,0,0,0,5.24-.26,2.69,2.69,0,0,0-.08-0.53l3.13-.14a2.74,2.74,0,0,0,0,.56,2.63,2.63,0,0,0,5.24-.26,2.69,2.69,0,0,0-.08-0.53l3.16-.14a2.74,2.74,0,0,0,0,.56,2.63,2.63,0,0,0,5.24-.25,2.69,2.69,0,0,0-.08-0.53l3.15-.13a2.74,2.74,0,0,0,0,.56,2.63,2.63,0,0,0,5.24-.25,2.69,2.69,0,0,0-.08-0.53l3.17-.13a2.74,2.74,0,0,0,0,.56,2.63,2.63,0,0,0,5.24-.24,2.69,2.69,0,0,0-.07-0.53l3.13-.13a2.74,2.74,0,0,0,0,.56,2.62,2.62,0,0,0,5.24-.23,2.69,2.69,0,0,0-.07-0.53l3.15-.12a2.74,2.74,0,0,0,0,.55,2.62,2.62,0,0,0,5.24-.23,2.69,2.69,0,0,0-.07-0.53l3.16-.12a2.74,2.74,0,0,0,0,.56,2.62,2.62,0,0,0,5.24-.22,2.69,2.69,0,0,0-.07-0.53l3.15-.12a2.75,2.75,0,0,0,0,.55,2.62,2.62,0,0,0,5.24-.22,2.68,2.68,0,0,0-.07-0.52l3.14-.11a2.75,2.75,0,0,0,0,.55,2.62,2.62,0,0,0,5.24-.21,2.69,2.69,0,0,0-.07-0.52l3.16-.11a2.75,2.75,0,0,0,0,.55,2.62,2.62,0,0,0,5.24-.2,2.69,2.69,0,0,0-.07-0.52l3.16-.11a2.75,2.75,0,0,0,0,.55A2.62,2.62,0,0,0,248,26a2.69,2.69,0,0,0-.07-0.52l3.14-.1a2.75,2.75,0,0,0,0,.56,2.63,2.63,0,0,0,5.25-.2,2.69,2.69,0,0,0-.07-0.53l3.14-.1a2.74,2.74,0,0,0,0,.55,2.63,2.63,0,0,0,5.25-.19,2.68,2.68,0,0,0-.07-0.53l3.15-.1a2.75,2.75,0,0,0,0,.56,2.63,2.63,0,0,0,5.25-.19,2.69,2.69,0,0,0-.07-0.53l3.15-.09a2.75,2.75,0,0,0,0,.55A2.63,2.63,0,0,0,281.1,25a2.69,2.69,0,0,0-.07-0.53l3.16-.09a2.75,2.75,0,0,0,0,.55,2.63,2.63,0,0,0,5.25-.17,2.69,2.69,0,0,0-.07-0.53l3.15-.09a2.74,2.74,0,0,0,0,.56,2.63,2.63,0,0,0,5.25-.17,2.69,2.69,0,0,0-.07-0.53l3.15-.08a2.75,2.75,0,0,0,0,.55,2.63,2.63,0,0,0,5.25-.16,2.69,2.69,0,0,0-.07-0.53l3.14-.08a2.75,2.75,0,0,0,0,.55,2.63,2.63,0,0,0,5.25-.16,2.69,2.69,0,0,0-.07-0.53l3.14-.08a2.75,2.75,0,0,0,0,.55,2.63,2.63,0,0,0,5.25-.15,2.68,2.68,0,0,0-.07-0.52l3.15-.08a2.75,2.75,0,0,0,0,.55,2.62,2.62,0,0,0,5.25-.15,2.69,2.69,0,0,0-.06-0.53l3.14-.07a2.75,2.75,0,0,0,0,.55,2.62,2.62,0,0,0,5.25-.14A2.69,2.69,0,0,0,339,23l3.15-.07a2.75,2.75,0,0,0,0,.55,2.63,2.63,0,0,0,5.25-.14,2.69,2.69,0,0,0-.06-0.53l3.17-.07a2.75,2.75,0,0,0,0,.55,2.62,2.62,0,0,0,5.25-.13,2.68,2.68,0,0,0-.06-0.52l3.15-.06a2.75,2.75,0,0,0,0,.55A2.62,2.62,0,0,0,364,23a2.69,2.69,0,0,0-.06-0.52l3.15-.06a2.74,2.74,0,0,0,0,.55,2.62,2.62,0,0,0,5.25-.12,2.68,2.68,0,0,0-.06-0.52l3.14-.06a2.74,2.74,0,0,0,0,.55,2.62,2.62,0,0,0,5.25-.11,2.69,2.69,0,0,0-.06-0.52l3.16-.05a2.75,2.75,0,0,0,0,.55,2.62,2.62,0,0,0,5.25-.11A2.68,2.68,0,0,0,388.8,22l3.15,0a2.74,2.74,0,0,0,0,.55,2.62,2.62,0,0,0,5.25-.11,2.69,2.69,0,0,0-.06-0.52l3.13,0a2.75,2.75,0,0,0,0,.55,2.62,2.62,0,0,0,5.25-.1,2.68,2.68,0,0,0-.06-0.52l3.17,0a2.75,2.75,0,0,0,0,.55,2.62,2.62,0,0,0,5.25-.09,2.68,2.68,0,0,0-.06-0.52l3.15,0a2.74,2.74,0,0,0,0,.55,2.62,2.62,0,0,0,5.25-.09,2.69,2.69,0,0,0-.06-0.52l3.13,0a2.74,2.74,0,0,0-.05.55,2.62,2.62,0,0,0,5.25-.08,2.69,2.69,0,0,0-.06-0.52l3.16,0a2.74,2.74,0,0,0-.05.55,2.62,2.62,0,0,0,5.25-.08,2.69,2.69,0,0,0-.06-0.52l3.14,0a2.74,2.74,0,0,0-.05.55,2.62,2.62,0,0,0,5.25-.07,2.69,2.69,0,0,0-.06-0.52l3.14,0a2.75,2.75,0,0,0-.05.55,2.62,2.62,0,0,0,5.25-.07,2.69,2.69,0,0,0-.06-0.52l3.17,0a2.75,2.75,0,0,0-.05.55,2.62,2.62,0,0,0,5.25-.06,2.69,2.69,0,0,0-.06-0.52l3.14,0a2.75,2.75,0,0,0-.05.55,2.62,2.62,0,0,0,5.25-.05,2.69,2.69,0,0,0-.05-0.52l3.16,0a2.75,2.75,0,0,0-.05.55,2.62,2.62,0,0,0,5.25-.05A2.68,2.68,0,0,0,480,21.1h3.15a2.75,2.75,0,0,0-.05.55,2.62,2.62,0,0,0,5.25,0,2.69,2.69,0,0,0-.05-0.52h3.15a2.75,2.75,0,0,0-.05.55,2.62,2.62,0,0,0,5.25,0,2.69,2.69,0,0,0-.05-0.52h3.14a2.75,2.75,0,0,0-.06.55,2.62,2.62,0,0,0,5.25,0,2.69,2.69,0,0,0-.05-0.52H508a2.75,2.75,0,0,0-.06.55,2.62,2.62,0,0,0,5.25,0,2.69,2.69,0,0,0-.05-0.52h3.15a2.75,2.75,0,0,0-.06.55,2.62,2.62,0,0,0,5.25,0,2.69,2.69,0,0,0-.05-0.52h3.13a2.74,2.74,0,0,0-.06.55,2.62,2.62,0,0,0,5.25,0,2.69,2.69,0,0,0-.05-0.52h3.17a2.74,2.74,0,0,0-.06.55,2.62,2.62,0,0,0,5.25,0,2.68,2.68,0,0,0-.05-0.52h3.15a2.75,2.75,0,0,0-.06.55,2.62,2.62,0,0,0,5.25,0,2.68,2.68,0,0,0,0-.52h3.15a2.75,2.75,0,0,0-.06.55,2.62,2.62,0,0,0,5.25,0,2.69,2.69,0,0,0,0-.52l3.13,0a2.74,2.74,0,0,0-.06.55,2.62,2.62,0,0,0,5.25,0,2.69,2.69,0,0,0,0-.52l3.16,0a2.75,2.75,0,0,0-.06.55,2.62,2.62,0,0,0,5.25,0,2.69,2.69,0,0,0,0-.52l3.16,0a2.75,2.75,0,0,0-.06.55,2.62,2.62,0,0,0,5.25,0,2.69,2.69,0,0,0,0-.52l3.14,0a2.74,2.74,0,0,0-.06.55,2.62,2.62,0,0,0,5.25,0,2.69,2.69,0,0,0,0-.52l3.13,0a2.75,2.75,0,0,0-.06.55,2.62,2.62,0,0,0,5.25,0,2.68,2.68,0,0,0,0-.52l3.15,0a2.74,2.74,0,0,0-.06.55,2.62,2.62,0,0,0,5.25,0,2.69,2.69,0,0,0,0-.52l3.15,0a2.75,2.75,0,0,0-.06.55,2.62,2.62,0,0,0,5.25,0,2.69,2.69,0,0,0,0-.52l3.15,0a2.75,2.75,0,0,0-.06.55,2.62,2.62,0,0,0,5.25,0,2.69,2.69,0,0,0,0-.52l3.16,0a2.74,2.74,0,0,0-.06.55,2.62,2.62,0,0,0,5.25,0,2.68,2.68,0,0,0,0-.52l3.15,0a2.75,2.75,0,0,0-.06.55,2.62,2.62,0,0,0,5.25.06,2.68,2.68,0,0,0,0-.52l3.16,0a2.75,2.75,0,0,0-.07.55,2.63,2.63,0,0,0,5.25.06,2.69,2.69,0,0,0,0-.53l3.14,0.05a2.74,2.74,0,0,0-.07.55,2.62,2.62,0,0,0,5.25.06,2.69,2.69,0,0,0,0-.53l3.15,0.06a2.75,2.75,0,0,0-.07.55,2.62,2.62,0,0,0,5.25.07,2.69,2.69,0,0,0,0-.53l3.16,0.06a2.74,2.74,0,0,0-.07.55,2.62,2.62,0,0,0,5.25.07,2.69,2.69,0,0,0,0-.53l3.16,0.06a2.74,2.74,0,0,0-.07.55,2.62,2.62,0,0,0,5.25.08,2.69,2.69,0,0,0,0-.53l3.13,0.06a2.75,2.75,0,0,0-.07.55,2.62,2.62,0,0,0,5.25.09,2.69,2.69,0,0,0,0-.53L690.39,23a2.74,2.74,0,0,0-.07.55,2.62,2.62,0,0,0,5.25.09,2.68,2.68,0,0,0,0-.53l3.14,0.07a2.75,2.75,0,0,0-.07.55,2.63,2.63,0,0,0,5.25.1,2.69,2.69,0,0,0,0-.53L707,23.33a2.75,2.75,0,0,0-.07.55,2.63,2.63,0,0,0,5.25.1,2.69,2.69,0,0,0,0-.53l3.17,0.08a2.74,2.74,0,0,0-.07.55,2.63,2.63,0,0,0,5.25.11,2.69,2.69,0,0,0,0-.53l3.12,0.08a2.75,2.75,0,0,0-.07.55,2.63,2.63,0,0,0,5.25.11,2.69,2.69,0,0,0,0-.53L731.84,24a2.74,2.74,0,0,0-.07.55,2.63,2.63,0,0,0,5.25.12,2.68,2.68,0,0,0,0-.53l3.13,0.09a2.75,2.75,0,0,0-.07.55,2.63,2.63,0,0,0,5.25.12,2.69,2.69,0,0,0,0-.53l3.16,0.09a2.74,2.74,0,0,0-.07.55,2.63,2.63,0,0,0,5.25.13,2.69,2.69,0,0,0,0-.53l3.15,0.09a2.74,2.74,0,0,0-.07.55,2.63,2.63,0,0,0,5.25.14,2.69,2.69,0,0,0,0-.53l3.13,0.1a2.74,2.74,0,0,0-.07.55,2.63,2.63,0,0,0,5.25.14,2.68,2.68,0,0,0,0-.53l3.16,0.1a2.74,2.74,0,0,0-.08.55,2.63,2.63,0,0,0,5.25.14,2.69,2.69,0,0,0,0-.53l3.15,0.1a2.74,2.74,0,0,0-.07.55,2.62,2.62,0,0,0,5.25.15,2.69,2.69,0,0,0,0-.53l3.16,0.11a2.74,2.74,0,0,0-.08.55,2.62,2.62,0,0,0,5.25.16,2.69,2.69,0,0,0,0-.53L798.14,26a2.74,2.74,0,0,0-.08.55,2.62,2.62,0,0,0,5.25.16,2.69,2.69,0,0,0,0-.53l3.14,0.11a2.75,2.75,0,0,0-.08.55,2.62,2.62,0,0,0,5.25.17,2.69,2.69,0,0,0,0-.53l3.15,0.12a2.74,2.74,0,0,0-.08.55,2.62,2.62,0,0,0,5.25.17,2.69,2.69,0,0,0,0-.53L823,26.95a2.75,2.75,0,0,0-.08.55,2.62,2.62,0,0,0,5.25.18,2.68,2.68,0,0,0,0-.53l3.16,0.13a2.74,2.74,0,0,0-.08.55,2.62,2.62,0,0,0,5.25.19,2.69,2.69,0,0,0,0-.53l3.15,0.13a2.74,2.74,0,0,0-.08.55,2.62,2.62,0,0,0,5.25.19,2.69,2.69,0,0,0,0-.53l3.14,0.13a2.74,2.74,0,0,0-.08.55,2.63,2.63,0,0,0,5.25.2,2.69,2.69,0,0,0,0-.53l3.15,0.14a2.75,2.75,0,0,0-.08.55,2.63,2.63,0,0,0,5.25.2,2.69,2.69,0,0,0,0-.53l3.16,0.14a2.74,2.74,0,0,0-.08.55,2.63,2.63,0,0,0,5.25.21,2.69,2.69,0,0,0,0-.53L872.68,29a2.74,2.74,0,0,0-.08.55,2.63,2.63,0,0,0,5.25.22,2.69,2.69,0,0,0,0-.53L881,29.41a2.74,2.74,0,0,0-.08.55,2.63,2.63,0,0,0,5.25.22,2.69,2.69,0,0,0,0-.53l3.14,0.15a2.74,2.74,0,0,0-.09.56,2.63,2.63,0,0,0,5.25.23,2.69,2.69,0,0,0,0-.54l3.17,0.15a2.74,2.74,0,0,0-.09.55,2.62,2.62,0,0,0,5.24.23,2.69,2.69,0,0,0,0-.53l3.13,0.16a2.74,2.74,0,0,0-.09.55,2.62,2.62,0,0,0,5.24.24,2.69,2.69,0,0,0,0-.53L914.07,31a2.74,2.74,0,0,0-.09.55,2.62,2.62,0,0,0,5.24.24,2.68,2.68,0,0,0,0-.53l3.16,0.17a2.74,2.74,0,0,0-.09.55,2.63,2.63,0,0,0,5.24.25,2.69,2.69,0,0,0,0-.53l3.12,0.17a2.74,2.74,0,0,0-.09.55,2.63,2.63,0,0,0,5.24.26,2.69,2.69,0,0,0,0-.54l3.16,0.17a2.74,2.74,0,0,0-.09.55,2.63,2.63,0,0,0,5.24.27,2.69,2.69,0,0,0,0-.54l3.16,0.18a2.74,2.74,0,0,0-.09.56,2.63,2.63,0,0,0,5.24.27,2.69,2.69,0,0,0,0-.54l3.14,0.18a2.74,2.74,0,0,0-.09.56,2.63,2.63,0,0,0,5.24.28,2.69,2.69,0,0,0,0-.54l3.14,0.19a2.74,2.74,0,0,0-.09.55,2.62,2.62,0,0,0,5.24.29,2.69,2.69,0,0,0,0-.54L972,34.27a2.74,2.74,0,0,0-.09.56,2.62,2.62,0,0,0,5.24.3,2.68,2.68,0,0,0,0-.54l3.15,0.2a2.74,2.74,0,0,0-.09.56,2.62,2.62,0,0,0,5.24.31,2.69,2.69,0,0,0,0-.54l3.14,0.2a2.74,2.74,0,0,0-.1.56,2.62,2.62,0,0,0,5.24.31,2.69,2.69,0,0,0,0-.54l3.13,0.21a2.75,2.75,0,0,0-.1.56,2.63,2.63,0,0,0,5.24.32,2.69,2.69,0,0,0,0-.54l3.14,0.21a2.74,2.74,0,0,0-.1.56,2.63,2.63,0,0,0,5.24.34,2.68,2.68,0,0,0,0-.54l3.13,0.22a2.74,2.74,0,0,0-.1.56,2.62,2.62,0,0,0,5.24.35,2.68,2.68,0,0,0,0-.54l3.16,0.23a2.72,2.72,0,0,0-.11.59,2.62,2.62,0,0,0,5.24.29,2.67,2.67,0,0,0,0-.5L1028,38V0Z" transform="translate(0 0)"/></svg>
