<svg xmlns="http://www.w3.org/2000/svg" style="width:0; height:0; visibility:hidden;">
  <defs>
      <clipPath id="SvgjsClipPath1061"><path id="SvgjsPath1060" d="M1422 2613.5C1422 2619.3 1417.3 2624 1411.5 2624C1405.7 2624 1401 2619.3 1401 2613.5C1401 2607.71 1405.7 2603.01 1411.5 2603.01C1417.3 2603.01 1422 2607.71 1422 2613.5Z " fill="#ffffff"/></clipPath>
  </defs>
    <symbol id="icon_clock" viewBox="0 0 100 100">
      <path id="SvgjsPath1059" d="M1422 2613.5C1422 2619.3 1417.3 2624 1411.5 2624C1405.7 2624 1401 2619.3 1401 2613.5C1401 2607.71 1405.7 2603.01 1411.5 2603.01C1417.3 2603.01 1422 2607.71 1422 2613.5Z " fill-opacity="0" fill="#ffffff" stroke-dasharray="0" stroke-linejoin="miter" stroke-linecap="butt" stroke-opacity="1" stroke="#461b08" stroke-miterlimit="50" stroke-width="4" clip-path="url(&quot;#SvgjsClipPath1061&quot;)" transform="matrix(1,0,0,1,-1401,-2603)"/><path id="SvgjsPath1062" d="M1415.63 2614.88L1410.0900000000001 2614.88L1410.0900000000001 2606.53 " fill-opacity="0" fill="#ffffff" stroke-dasharray="0" stroke-linejoin="miter" stroke-linecap="butt" stroke-opacity="1" stroke="#461b08" stroke-miterlimit="50" stroke-width="2" transform="matrix(1,0,0,1,-1401,-2603)"/>
    </symbol>
    <symbol id="icon_facebook" viewBox="0 0 22 22">
      <path id="SvgjsPath1050" d="M1216.79 2968L1216.79 2967.51L1220.24 2967.51L1220.24 2968ZM1216.79 2967.51L1216.79 2959.4700000000003L1213.8999999999999 2959.4700000000003L1213.8999999999999 2956.1600000000003L1216.79 2956.1600000000003L1216.79 2953.7100000000005C1216.79 2950.8700000000003 1218.53 2949.3300000000004 1221.07 2949.3300000000004C1222.29 2949.3300000000004 1223.34 2949.4100000000003 1223.6399999999999 2949.4500000000003L1223.6399999999999 2952.42L1221.8799999999999 2952.42C1220.4999999999998 2952.42 1220.2399999999998 2953.08 1220.2399999999998 2954.04L1220.2399999999998 2956.16L1223.5299999999997 2956.16L1223.0999999999997 2959.47L1220.2399999999998 2959.47L1220.2399999999998 2967.5099999999998L1224.5899999999997 2967.5099999999998C1226.9299999999996 2967.5099999999998 1228.8399999999997 2965.62 1228.8399999999997 2963.2799999999997L1228.8399999999997 2950.2299999999996C1228.8399999999997 2947.8999999999996 1226.9299999999996 2945.9999999999995 1224.5899999999997 2945.9999999999995L1211.4999999999998 2945.9999999999995C1209.1599999999999 2945.9999999999995 1207.2599999999998 2947.8999999999996 1207.2599999999998 2950.2299999999996L1207.2599999999998 2963.2799999999997C1207.2599999999998 2965.62 1209.1599999999999 2967.5099999999998 1211.4999999999998 2967.5099999999998Z " fill="#396d36" transform="matrix(1,0,0,1,-1207,-2946)"/>
    </symbol>
    <symbol id="icon_next" viewBox="0 0 100 100">
      <path id="SvgjsPath1013" d="M958.395 3134.23C958.395 3135.32 959.572 3135.94 960.4309999999999 3135.3L971.1899999999999 3126.48C971.8989999999999 3125.95 971.8919999999999 3124.87 971.1899999999999 3124.35L960.4309999999999 3115.5299999999997C959.6679999999999 3114.9599999999996 958.3929999999999 3115.4399999999996 958.3929999999999 3116.6L958.3949999999999 3121.08L946.9739999999998 3122.33C943.0639999999999 3122.93 942.8689999999998 3127.75 946.9739999999998 3128.49L958.3929999999998 3129.75Z " fill="#8ab43b" transform="matrix(1,0,0,1,-944,-3115)"/>
    </symbol>
    <symbol id="icon_odnoklassniki" viewBox="0 0 22 22">
      <path id="SvgjsPath1056" d="M1298.66 2959.17C1299.14 2958.88 1299.28 2958.26 1298.98 2957.8C1298.68 2957.3300000000004 1298.05 2957.19 1297.57 2957.48C1296.1399999999999 2958.36 1294.29 2958.36 1292.86 2957.48C1292.3799999999999 2957.19 1291.75 2957.33 1291.4499999999998 2957.8C1291.1499999999999 2958.26 1291.2899999999997 2958.88 1291.7699999999998 2959.17C1292.3999999999999 2959.56 1293.0899999999997 2959.83 1293.7999999999997 2959.9900000000002L1291.8499999999997 2961.9C1291.4499999999996 2962.29 1291.4499999999996 2962.92 1291.8499999999997 2963.31C1292.0499999999997 2963.5 1292.3099999999997 2963.6 1292.5699999999997 2963.6C1292.8299999999997 2963.6 1293.0999999999997 2963.5 1293.2999999999997 2963.31L1295.2199999999998 2961.44L1297.1399999999999 2963.31C1297.54 2963.7 1298.1899999999998 2963.7 1298.59 2963.31C1298.99 2962.92 1298.99 2962.29 1298.59 2961.9L1296.6299999999999 2959.9900000000002C1297.34 2959.8300000000004 1298.03 2959.5600000000004 1298.6599999999999 2959.17ZM1295.22 2957.21C1297.15 2957.21 1298.71 2955.68 1298.71 2953.81C1298.71 2951.93 1297.15 2950.4 1295.22 2950.4C1293.29 2950.4 1291.72 2951.9300000000003 1291.72 2953.81C1291.72 2955.68 1293.29 2957.21 1295.22 2957.21ZM1295.22 2952.4C1296.02 2952.4 1296.66 2953.03 1296.66 2953.81C1296.66 2954.58 1296.02 2955.22 1295.22 2955.22C1294.42 2955.22 1293.77 2954.58 1293.77 2953.81C1293.77 2953.0299999999997 1294.42 2952.4 1295.22 2952.4ZM1288.5 2946L1301.59 2946C1303.9299999999998 2946 1305.84 2947.9 1305.84 2950.23L1305.84 2963.28C1305.84 2965.6200000000003 1303.9299999999998 2967.51 1301.59 2967.51L1288.5 2967.51C1286.16 2967.51 1284.26 2965.6200000000003 1284.26 2963.28L1284.26 2950.23C1284.26 2947.9 1286.16 2946 1288.5 2946Z " fill="#396d36" transform="matrix(1,0,0,1,-1284,-2946)"/>
    </symbol>
    <symbol id="icon_prev" viewBox="0 0 100 100">
      <path id="SvgjsPath1010" d="M64.4602 3117.31C64.4602 3116.23 63.2736 3115.62 62.4081 3116.2599999999998L51.564499999999995 3124.95C50.849799999999995 3125.48 50.856399999999994 3126.5499999999997 51.564499999999995 3127.06L62.4081 3135.7599999999998C63.1776 3136.3199999999997 64.4623 3135.8399999999997 64.4623 3134.7L64.4602 3130.2799999999997L75.9714 3129.04C79.9124 3128.45 80.1086 3123.7 75.9714 3122.97L64.4623 3121.73Z " fill="#8ab33b" transform="matrix(1,0,0,1,-51,-3116)"/>
    </symbol>
    <symbol id="icon_vkontakte" viewBox="0 0 22 22">
      <path id="SvgjsPath1053" d="M1262.13 2957.09C1261.66 2956.6000000000004 1261.0400000000002 2956.27 1260.2700000000002 2956.1000000000004L1260.2700000000002 2956.0400000000004C1260.8100000000002 2955.8200000000006 1261.2300000000002 2955.4700000000003 1261.5300000000002 2954.9900000000002C1261.8400000000001 2954.5200000000004 1261.9900000000002 2953.98 1261.9900000000002 2953.3700000000003C1261.9900000000002 2952.8500000000004 1261.8800000000003 2952.3900000000003 1261.6600000000003 2951.9900000000002C1261.4400000000003 2951.59 1261.1100000000004 2951.2700000000004 1260.6600000000003 2951.03C1260.2500000000002 2950.8 1259.8000000000004 2950.6600000000003 1259.3300000000004 2950.59C1258.8600000000004 2950.52 1258.1700000000003 2950.48 1257.2500000000005 2950.48L1252.8400000000004 2950.48L1252.8400000000004 2962.92L1257.8400000000004 2962.92C1258.7000000000003 2962.92 1259.4200000000003 2962.84 1259.9800000000005 2962.69C1260.5400000000004 2962.53 1261.0500000000004 2962.27 1261.5200000000004 2961.9C1261.9200000000005 2961.59 1262.2300000000005 2961.21 1262.4700000000005 2960.7400000000002C1262.7000000000005 2960.2700000000004 1262.8200000000004 2959.73 1262.8200000000004 2959.11C1262.8200000000004 2958.26 1262.5900000000004 2957.59 1262.1300000000003 2957.09ZM1259.4 2959.86C1259.27 2960.1 1259.0600000000002 2960.27 1258.77 2960.4C1258.45 2960.54 1258.1299999999999 2960.61 1257.82 2960.62C1257.51 2960.63 1256.9399999999998 2960.64 1256.1299999999999 2960.64L1255.9599999999998 2960.64L1255.9599999999998 2957.52L1256.5399999999997 2957.52C1257.0999999999997 2957.52 1257.5399999999997 2957.53 1257.8699999999997 2957.54C1258.2099999999996 2957.55 1258.4699999999996 2957.59 1258.6599999999996 2957.66C1258.9699999999996 2957.77 1259.1999999999996 2957.93 1259.3599999999997 2958.1499999999996C1259.5199999999998 2958.3699999999994 1259.5999999999997 2958.6699999999996 1259.5999999999997 2959.0499999999997C1259.5999999999997 2959.35 1259.5299999999997 2959.62 1259.3999999999996 2959.8599999999997ZM1258.67 2954.72C1258.5700000000002 2954.9199999999996 1258.4 2955.0899999999997 1258.15 2955.2C1257.92 2955.31 1257.69 2955.37 1257.48 2955.3799999999997C1257.26 2955.39 1256.89 2955.39 1256.35 2955.39L1255.9599999999998 2955.39L1255.9599999999998 2952.7599999999998L1256.1799999999998 2952.7599999999998C1256.7399999999998 2952.7599999999998 1257.1599999999999 2952.77 1257.4399999999998 2952.7799999999997C1257.7199999999998 2952.7799999999997 1257.9599999999998 2952.83 1258.1699999999998 2952.9199999999996C1258.3899999999999 2953.0199999999995 1258.55 2953.1699999999996 1258.6499999999999 2953.3799999999997C1258.7599999999998 2953.5899999999997 1258.81 2953.7999999999997 1258.81 2953.9999999999995C1258.81 2954.2699999999995 1258.76 2954.5099999999998 1258.6699999999998 2954.7199999999993ZM1250.5 2946L1263.59 2946C1265.9299999999998 2946 1267.84 2947.9 1267.84 2950.23L1267.84 2963.28C1267.84 2965.6200000000003 1265.9299999999998 2967.51 1263.59 2967.51L1250.5 2967.51C1248.16 2967.51 1246.26 2965.6200000000003 1246.26 2963.28L1246.26 2950.23C1246.26 2947.9 1248.16 2946 1250.5 2946Z " fill="#396d36" transform="matrix(1,0,0,1,-1246,-2946)"/>
    </symbol></svg>