<svg id="SvgjsSvg1057" xmlns="http://www.w3.org/2000/svg" version="1.1" xmlns:xlink="http://www.w3.org/1999/xlink" xmlns:svgjs="http://svgjs.com/svgjs" width="21" height="21"><defs id="SvgjsDefs1058"><clipPath id="SvgjsClipPath1061"><path id="SvgjsPath1060" d="M1422 2613.5C1422 2619.3 1417.3 2624 1411.5 2624C1405.7 2624 1401 2619.3 1401 2613.5C1401 2607.71 1405.7 2603.01 1411.5 2603.01C1417.3 2603.01 1422 2607.71 1422 2613.5Z " fill="#ffffff"></path></clipPath></defs><path id="SvgjsPath1059" d="M1422 2613.5C1422 2619.3 1417.3 2624 1411.5 2624C1405.7 2624 1401 2619.3 1401 2613.5C1401 2607.71 1405.7 2603.01 1411.5 2603.01C1417.3 2603.01 1422 2607.71 1422 2613.5Z " fill-opacity="0" fill="#ffffff" stroke-dasharray="0" stroke-linejoin="miter" stroke-linecap="butt" stroke-opacity="1" stroke="#461b08" stroke-miterlimit="50" stroke-width="4" clip-path="url(&quot;#SvgjsClipPath1061&quot;)" transform="matrix(1,0,0,1,-1401,-2603)"></path><path id="SvgjsPath1062" d="M1415.63 2614.88L1410.0900000000001 2614.88L1410.0900000000001 2606.53 " fill-opacity="0" fill="#ffffff" stroke-dasharray="0" stroke-linejoin="miter" stroke-linecap="butt" stroke-opacity="1" stroke="#461b08" stroke-miterlimit="50" stroke-width="2" transform="matrix(1,0,0,1,-1401,-2603)"></path></svg>