<svg id="facebook" xmlns="http://www.w3.org/2000/svg" version="1.1" xmlns:xlink="http://www.w3.org/1999/xlink" xmlns:svgjs="http://svgjs.com/svgjs" viewBox="0 0 22 22"><defs id="SvgjsDefs1049"></defs><path id="SvgjsPath1050" d="M1216.79 2968L1216.79 2967.51L1220.24 2967.51L1220.24 2968ZM1216.79 2967.51L1216.79 2959.4700000000003L1213.8999999999999 2959.4700000000003L1213.8999999999999 2956.1600000000003L1216.79 2956.1600000000003L1216.79 2953.7100000000005C1216.79 2950.8700000000003 1218.53 2949.3300000000004 1221.07 2949.3300000000004C1222.29 2949.3300000000004 1223.34 2949.4100000000003 1223.6399999999999 2949.4500000000003L1223.6399999999999 2952.42L1221.8799999999999 2952.42C1220.4999999999998 2952.42 1220.2399999999998 2953.08 1220.2399999999998 2954.04L1220.2399999999998 2956.16L1223.5299999999997 2956.16L1223.0999999999997 2959.47L1220.2399999999998 2959.47L1220.2399999999998 2967.5099999999998L1224.5899999999997 2967.5099999999998C1226.9299999999996 2967.5099999999998 1228.8399999999997 2965.62 1228.8399999999997 2963.2799999999997L1228.8399999999997 2950.2299999999996C1228.8399999999997 2947.8999999999996 1226.9299999999996 2945.9999999999995 1224.5899999999997 2945.9999999999995L1211.4999999999998 2945.9999999999995C1209.1599999999999 2945.9999999999995 1207.2599999999998 2947.8999999999996 1207.2599999999998 2950.2299999999996L1207.2599999999998 2963.2799999999997C1207.2599999999998 2965.62 1209.1599999999999 2967.5099999999998 1211.4999999999998 2967.5099999999998Z " fill="#396d36" transform="matrix(1,0,0,1,-1207,-2946)"></path></svg>
