<svg id="odnoklassniki" xmlns="http://www.w3.org/2000/svg" version="1.1" xmlns:xlink="http://www.w3.org/1999/xlink" xmlns:svgjs="http://svgjs.com/svgjs" viewBox="0 0 22 22"><defs id="SvgjsDefs1055"></defs><path id="SvgjsPath1056" d="M1298.66 2959.17C1299.14 2958.88 1299.28 2958.26 1298.98 2957.8C1298.68 2957.3300000000004 1298.05 2957.19 1297.57 2957.48C1296.1399999999999 2958.36 1294.29 2958.36 1292.86 2957.48C1292.3799999999999 2957.19 1291.75 2957.33 1291.4499999999998 2957.8C1291.1499999999999 2958.26 1291.2899999999997 2958.88 1291.7699999999998 2959.17C1292.3999999999999 2959.56 1293.0899999999997 2959.83 1293.7999999999997 2959.9900000000002L1291.8499999999997 2961.9C1291.4499999999996 2962.29 1291.4499999999996 2962.92 1291.8499999999997 2963.31C1292.0499999999997 2963.5 1292.3099999999997 2963.6 1292.5699999999997 2963.6C1292.8299999999997 2963.6 1293.0999999999997 2963.5 1293.2999999999997 2963.31L1295.2199999999998 2961.44L1297.1399999999999 2963.31C1297.54 2963.7 1298.1899999999998 2963.7 1298.59 2963.31C1298.99 2962.92 1298.99 2962.29 1298.59 2961.9L1296.6299999999999 2959.9900000000002C1297.34 2959.8300000000004 1298.03 2959.5600000000004 1298.6599999999999 2959.17ZM1295.22 2957.21C1297.15 2957.21 1298.71 2955.68 1298.71 2953.81C1298.71 2951.93 1297.15 2950.4 1295.22 2950.4C1293.29 2950.4 1291.72 2951.9300000000003 1291.72 2953.81C1291.72 2955.68 1293.29 2957.21 1295.22 2957.21ZM1295.22 2952.4C1296.02 2952.4 1296.66 2953.03 1296.66 2953.81C1296.66 2954.58 1296.02 2955.22 1295.22 2955.22C1294.42 2955.22 1293.77 2954.58 1293.77 2953.81C1293.77 2953.0299999999997 1294.42 2952.4 1295.22 2952.4ZM1288.5 2946L1301.59 2946C1303.9299999999998 2946 1305.84 2947.9 1305.84 2950.23L1305.84 2963.28C1305.84 2965.6200000000003 1303.9299999999998 2967.51 1301.59 2967.51L1288.5 2967.51C1286.16 2967.51 1284.26 2965.6200000000003 1284.26 2963.28L1284.26 2950.23C1284.26 2947.9 1286.16 2946 1288.5 2946Z " fill="#396d36" transform="matrix(1,0,0,1,-1284,-2946)"></path></svg>
