<svg id="vkontakte" xmlns="http://www.w3.org/2000/svg" version="1.1" xmlns:xlink="http://www.w3.org/1999/xlink" xmlns:svgjs="http://svgjs.com/svgjs" viewBox="0 0 22 22"><defs id="SvgjsDefs1052"></defs><path id="SvgjsPath1053" d="M1262.13 2957.09C1261.66 2956.6000000000004 1261.0400000000002 2956.27 1260.2700000000002 2956.1000000000004L1260.2700000000002 2956.0400000000004C1260.8100000000002 2955.8200000000006 1261.2300000000002 2955.4700000000003 1261.5300000000002 2954.9900000000002C1261.8400000000001 2954.5200000000004 1261.9900000000002 2953.98 1261.9900000000002 2953.3700000000003C1261.9900000000002 2952.8500000000004 1261.8800000000003 2952.3900000000003 1261.6600000000003 2951.9900000000002C1261.4400000000003 2951.59 1261.1100000000004 2951.2700000000004 1260.6600000000003 2951.03C1260.2500000000002 2950.8 1259.8000000000004 2950.6600000000003 1259.3300000000004 2950.59C1258.8600000000004 2950.52 1258.1700000000003 2950.48 1257.2500000000005 2950.48L1252.8400000000004 2950.48L1252.8400000000004 2962.92L1257.8400000000004 2962.92C1258.7000000000003 2962.92 1259.4200000000003 2962.84 1259.9800000000005 2962.69C1260.5400000000004 2962.53 1261.0500000000004 2962.27 1261.5200000000004 2961.9C1261.9200000000005 2961.59 1262.2300000000005 2961.21 1262.4700000000005 2960.7400000000002C1262.7000000000005 2960.2700000000004 1262.8200000000004 2959.73 1262.8200000000004 2959.11C1262.8200000000004 2958.26 1262.5900000000004 2957.59 1262.1300000000003 2957.09ZM1259.4 2959.86C1259.27 2960.1 1259.0600000000002 2960.27 1258.77 2960.4C1258.45 2960.54 1258.1299999999999 2960.61 1257.82 2960.62C1257.51 2960.63 1256.9399999999998 2960.64 1256.1299999999999 2960.64L1255.9599999999998 2960.64L1255.9599999999998 2957.52L1256.5399999999997 2957.52C1257.0999999999997 2957.52 1257.5399999999997 2957.53 1257.8699999999997 2957.54C1258.2099999999996 2957.55 1258.4699999999996 2957.59 1258.6599999999996 2957.66C1258.9699999999996 2957.77 1259.1999999999996 2957.93 1259.3599999999997 2958.1499999999996C1259.5199999999998 2958.3699999999994 1259.5999999999997 2958.6699999999996 1259.5999999999997 2959.0499999999997C1259.5999999999997 2959.35 1259.5299999999997 2959.62 1259.3999999999996 2959.8599999999997ZM1258.67 2954.72C1258.5700000000002 2954.9199999999996 1258.4 2955.0899999999997 1258.15 2955.2C1257.92 2955.31 1257.69 2955.37 1257.48 2955.3799999999997C1257.26 2955.39 1256.89 2955.39 1256.35 2955.39L1255.9599999999998 2955.39L1255.9599999999998 2952.7599999999998L1256.1799999999998 2952.7599999999998C1256.7399999999998 2952.7599999999998 1257.1599999999999 2952.77 1257.4399999999998 2952.7799999999997C1257.7199999999998 2952.7799999999997 1257.9599999999998 2952.83 1258.1699999999998 2952.9199999999996C1258.3899999999999 2953.0199999999995 1258.55 2953.1699999999996 1258.6499999999999 2953.3799999999997C1258.7599999999998 2953.5899999999997 1258.81 2953.7999999999997 1258.81 2953.9999999999995C1258.81 2954.2699999999995 1258.76 2954.5099999999998 1258.6699999999998 2954.7199999999993ZM1250.5 2946L1263.59 2946C1265.9299999999998 2946 1267.84 2947.9 1267.84 2950.23L1267.84 2963.28C1267.84 2965.6200000000003 1265.9299999999998 2967.51 1263.59 2967.51L1250.5 2967.51C1248.16 2967.51 1246.26 2965.6200000000003 1246.26 2963.28L1246.26 2950.23C1246.26 2947.9 1248.16 2946 1250.5 2946Z " fill="#396d36" transform="matrix(1,0,0,1,-1246,-2946)"></path></svg>
